<svg xmlns="http://www.w3.org/2000/svg" width="400" height="400" fill-rule="evenodd" xmlns:v="https://vecta.io/nano"><path d="M235.696 2.464c-.254.254-1.661.659-3.124.9s-2.652.606-2.64.815c.041.725 3.242 1.389 4.531.939 1.072-.374 1.329-.289 2.467.806.839.808 1.762 1.267 2.719 1.35 2.105.183 1.53 1.926-.636 1.926-1.146 0-1.413.151-1.413.8 0 .533-.267.8-.8.8-.711 0-.8.267-.8 2.4v2.4h3 3v3.2c0 3.155-.757 4.536-1.316 2.4-.296-1.132-3.084-1.174-3.084-.047 0 .417.357.847.8.963s.8.423.8.684-.36.569-.8.684c-.675.177-.8.546-.8 2.363 0 1.886-.099 2.153-.8 2.153-.533 0-.8.267-.8.8 0 .44.257.8.571.8 1.121 0 1.848 2.238 1.169 3.6-.773 1.55-4.94 1.888-4.94.4 0-.533-.267-.8-.8-.8s-.8.267-.8.8.267.8.8.8c.999 0 1.106 1.648.158 2.435-.353.292-.798.945-.99 1.449-.269.707-.659.916-1.711.916-1.027 0-1.415.197-1.573.8-.115.44-.496.8-.847.8-.461 0-.637.386-.637 1.4 0 1.333-.067 1.4-1.4 1.4-1.133 0-1.4.152-1.4.8 0 .444.267.8.6.8.433 0 .6.444.6 1.6 0 1.562-.033 1.6-1.4 1.6-1.592 0-2.059-1.334-.6-1.716 1.919-.502.86-1.484-1.6-1.484h-2.4v2.353c0 2.017.114 2.384.8 2.563.44.115.8.475.8.8s.379.69.842.811c.955.25.836 1.206-.175 1.402-.45.088-.667-.14-.667-.7 0-.701-.248-.829-1.6-.829-1.197 0-1.6.16-1.6.637 0 .351-.343.728-.763.837s-.853.543-.963.963-.486.763-.837.763c-.398 0-.637.345-.637.92 0 1.328-.727 1.875-2.121 1.596-.855-.171-1.121-.107-.918.222.158.254.546.462.863.462a.59.59 0 0 1 .576.6c0 .441-.46.6-1.738.6-2.209 0-3.062.872-3.062 3.131V64h-3c-2.733 0-3 .071-3 .8 0 .693-.267.8-2 .8s-2 .107-2 .8c0 .44.18.8.4.8s.4.36.4.8c0 .65-.267.8-1.418.8-2.17 0-3.382 1.428-3.382 3.982V74.8h-1.4c-1.133 0-1.4.152-1.4.8 0 .444.267.8.6.8s.6.356.6.8c0 .642-.267.8-1.353.8-1.017 0-1.406.199-1.563.8-.16.613-.546.8-1.647.8-1.17 0-1.437.148-1.437.8 0 .533-.267.8-.8.8s-.8.267-.8.8-.267.8-.8.8c-.608 0-.8.267-.8 1.112 0 .653-.33 1.349-.8 1.688-.44.317-.8.811-.8 1.098s-.405.68-.9.873-1.52.999-2.278 1.79c-.802.837-1.765 1.439-2.3 1.439-.717 0-.922.223-.922 1 0 .932-.135 1-1.976 1-1.087 0-2.074.157-2.192.348s-.781.462-1.473.6c-2.463.493-.653 1.36 3.36 1.609 4.788.298 32.713.624 54.306.635 18.829.009 18.775.001 18.775 2.632 0 .546.347 2.294.77 3.884s1.172 4.692 1.663 6.892 1.224 5.144 1.63 6.542.737 2.941.737 3.429.252 1.684.56 2.658c.648 2.053 1.766 6.573 2.267 9.171.191.99.612 2.79.935 4 .804 3.01 1.847 7.43 2.265 9.6.191.99.606 2.79.921 4s.972 4 1.458 6.2l1.608 7c2.045 8.461 2.186 9.413 2.157 14.6-.064 11.758-3.633 23.737-9.924 33.311-1.716 2.61-2.171 3.168-5.725 7.009-4.882 5.278-13.122 10.593-20.607 13.292-2.661.96-8.262 2.588-8.902 2.588-3.135 0-5.711 6.023-6.842 16-.66 5.818-.64 7.188.248 17.2.879 9.906 4.257 22.8 5.973 22.8.352 0 8.629 3.966 23.608 11.313 7.903 3.876 7.979 3.95 7.991 7.797.008 2.734-.051 2.933-.984 3.287-1.572.598-92.514.578-93.235-.02-.869-.721-.768-5.917.137-7.018.38-.463 2.491-1.7 4.691-2.749 23.801-11.353 27.652-13.52 28.027-15.774.131-.79.576-2.516.989-3.836 1.094-3.503 2.382-9.885 2.397-11.875.007-.949.273-3.525.592-5.725 1.438-9.929-.014-21.523-3.644-29.083-.802-1.67-1.295-1.914-6.347-3.141-1.972-.479-4.132-1.102-4.8-1.384-13.769-5.822-21.072-11.414-27.581-21.121-8.788-13.105-12.603-36.025-7.868-47.271.473-1.122 1.577-5.833 2.216-9.452.297-1.678.729-3.407.962-3.841s.549-2.021.703-3.524.521-3.195.815-3.759.534-1.564.535-2.224.43-2.64.954-4.4c1.672-5.608 2.002-7.136 2.163-10 .118-2.1.349-2.979.922-3.516.421-.393.791-1.203.822-1.8a95.95 95.95 0 0 1 .165-2.382c.113-1.359-.496-2.153-1.012-1.318-.166.268-.41 1.65-.542 3.071-.149 1.593-.54 3.003-1.02 3.677-.428.601-.839 1.62-.913 2.265-.1.866-.395 1.232-1.135 1.403-.699.162-1.037.542-1.121 1.261-.067.567-.652 1.538-1.3 2.159-.677.649-1.19 1.566-1.204 2.155-.025 1.011-.031 1.013-.387.125-.45-1.119-1.588-1.191-1.588-.1 0 .444.267.8.6.8.692 0 .8.629.175 1.015-.233.145-.584.684-.78 1.199-.271.712-.714.965-1.859 1.061-2.786.232-3.854 4.725-1.123 4.725.981 0 1.473 1.084.595 1.314-.549.143-.808.544-.808 1.249 0 .57-.18 1.037-.4 1.037s-.4.54-.4 1.2c0 .933-.178 1.2-.8 1.2-.884 0-1.098 1.142-.355 1.885.886.886-.115 1.315-3.069 1.315-2.709 0-2.976.072-2.976.8 0 .533-.267.8-.8.8-.608 0-.8.267-.8 1.112 0 .653-.33 1.349-.8 1.688-1.072.772-1.059 2.841.023 3.821l.823.744-.823.305c-.618.228-.823.656-.823 1.717 0 1.408-.006 1.413-1.8 1.413-1.778 0-2.601 1.058-1.4 1.8.651.402.472 3.243-.242 3.835-.353.292-.798.945-.99 1.449-.305.802-.623.916-2.558.916-1.755 0-2.21.131-2.21.637 0 .351-.36.732-.8.847-.594.155-.8.546-.8 1.516s-.206 1.361-.8 1.516c-.528.138-.8.546-.8 1.198 0 1.159-.613 1.756-2 1.948-.864.119-1.017.369-1.123 1.836-.176 2.435-2.049 5.865-3.296 6.037-.539.074-1.386.511-1.881.97l-.9.834v-.869c0-.603-.245-.87-.8-.87-.573 0-.8.267-.8.938 0 .516-.36 1.264-.8 1.662-.482.436-.8 1.232-.8 2 0 .762-.318 1.564-.788 1.989-.688.623-.802 1.33-.9 5.562L99.8 203l-1.348.129c-.741.071-1.72.476-2.175.9s-1.204.771-1.664.771-1.096.36-1.413.8c-.422.586-1.035.8-2.288.8H89.2v2.153c0 1.841.12 2.185.828 2.37.663.174.802.479.7 1.543-.148 1.533-1.297 2.061-1.639.753-.31-1.185-3.089-1.202-3.089-.019 0 .465.267.8.637.8.351 0 .732.36.847.8s.458.8.763.8c.727 0 .704.577-.047 1.2a1.86 1.86 0 0 0-.6 1.249c0 .484-.284.751-.8.751-.44 0-.8-.18-.8-.4s-.349-.4-.776-.4-.888.18-1.024.4-.846.4-1.577.4c-.993 0-1.383.202-1.539.8-.115.44-.496.8-.847.8-.92 0-.785 1.236.163 1.484.675.177.8.546.8 2.363 0 1.886.099 2.153.8 2.153.444 0 .8-.267.8-.6s.287-.6.637-.6.732-.36.847-.8c.271-1.036 1.561-1.036 1.832 0 .178.68.546.8 2.447.8 2.398 0 3.048.829 1.595 2.035-.353.292-.798.945-.99 1.449-.272.716-.657.916-1.758.916-1.143 0-1.41.151-1.41.8 0 .667-.267.8-1.6.8s-1.6-.133-1.6-.8c0-.465-.267-.8-.637-.8-.351 0-.732.36-.847.8-.159.606-.546.8-1.6.8s-1.441-.194-1.6-.8c-.266-1.017-1.328-1.041-1.59-.037-.11.42-.543.853-.963.963-1.011.264-.968 1.404.096 2.536 1.202 1.28.436 2.138-1.908 2.138-1.743 0-1.751.006-1.751 1.437 0 1.101-.187 1.487-.8 1.647-1.047.274-1.029 1.331.027 1.607 1.15.301-1.309 2.909-2.743 2.909-.622 0-1.032.281-1.168.8-.115.44-.425.8-.688.8-.61 0-2.628 2.09-2.628 2.722 0 .263-.287.478-.637.478s-.732.36-.847.8-.475.8-.8.8-.685.36-.8.8-.464.8-.776.8-.703.37-.87.823l-.305.823-.744-.823c-.575-.635-1.233-.823-2.883-.823-2.282 0-3.203-1.228-1.296-1.727.955-.25.836-1.206-.175-1.402-.427-.083-.667.134-.667.603 0 .404-.36.958-.8 1.233-.465.29-.8.933-.8 1.534 0 .697-.26 1.102-.8 1.243-1.211.317-1.211 5.915 0 6.232 1.034.27 1.034 1.329 0 1.6-1.205.315-1.205 4.684 0 4.684.533 0 .8.267.8.8 0 .713-.267.8-2.442.8h-2.442l.153-1.6.152-1.6h-1.548c-1.211 0-1.593-.174-1.757-.8-.115-.44-.458-.8-.763-.8s-.553-.36-.553-.8.267-.8.6-.8.6-.242.6-.538.36-.864.8-1.262c1.87-1.693 1.103-2.6-2.2-2.6h-3v1.4c0 1.133-.152 1.4-.8 1.4-1.608 0-.969 1.538.697 1.676 1.75.145 2.186 1.127 1.055 2.377-.715.79-.719.79-1.022-.03-.392-1.06-1.53-1.077-1.53-.023 0 .444.267.8.6.8s.6.144.6.32c0 .763-1.084 1.28-2.68 1.28-1.453 0-1.72.124-1.72.8 0 .533-.267.8-.8.8-.553 0-.8-.267-.8-.862 0-.837-.024-.841-.8-.138-.641.58-.8 1.232-.8 3.282v2.558l-2.296-.12c-2.435-.127-3.874-1.52-1.571-1.52 1.206 0 1.067-1.402-.17-1.726-.42-.109-.763-.486-.763-.837 0-.461-.386-.637-1.4-.637-1.133 0-1.4.152-1.4.8 0 .444.267.8.6.8.735 0 .824 2.016.12 2.72-.264.264-1.233.48-2.153.48-1.337 0-1.716.161-1.883.8-.115.44-.496.8-.847.8-.409 0-.637.35-.637.977 0 .538-.32 1.213-.711 1.5s-.708.883-.702 1.323c.007.639-.212.774-1.089.671-.604-.07-1.098.059-1.098.288s.291.304.647.168c.545-.21.576-.118.2.586-.582 1.086-.565 1.405.053 1.034.323-.194.301-.055-.064.394-.31.383-.785.611-1.055.507-.32-.123-.42.082-.287.59.164.626.316.685.777.303.316-.262.545-.311.508-.109-.159.892.533 2.234.878 1.702.248-.384.313-.308.233.266a4.2 4.2 0 0 1-.463 1.362c-.221.354-.203.47.05.314.22-.136.912.286 1.537.938s.992 1.186.817 1.186.024.315.444.7.529.543.244.351c-.37-.249-.519-.113-.519.476 0 .454.208.954.462 1.111.305.189.352.108.138-.238-.21-.339-.167-.427.121-.249.244.151.343.539.218.863-.127.333.184.948.718 1.417.519.457.673.713.343.57-.377-.164-.336-.044.112.322.635.52.643.609.074.827-.35.134-.519.434-.376.667.179.288.447.268.848-.065.471-.391.563-.375.465.08-.069.319.126.514.445.445.48-.103.484-.022.025.531-.44.531-.445.713-.025.972.365.225.386.401.075.594-.844.521-.442 1.041.601.779.919-.23 1.013-.163.784.56-.187.588-.057.887.456 1.05.395.126.956.609 1.247 1.074s.335.727.099.581-.43-.09-.43.125.225.482.5.593c.385.156.372.293-.058.593-.745.52-.244 1.741.653 1.59.396-.067.661.1.605.381-.055.275.08.5.3.5s.4.191.4.424-.208.295-.462.138c-.288-.178-.353-.11-.172.183.159.257.457.364.662.238.718-.444 1.238.255.691.929-.322.398-.341.535-.051.361.601-.361 1.841.865 1.575 1.558-.128.336.009.447.377.306s.58.026.58.444c0 .366-.168.563-.372.436a.44.44 0 0 0-.602.141c-.127.205.201.325.727.267.875-.096.951.028.874 1.435-.076 1.394.153 1.733 1.073 1.587.316-.049.447.576.317 1.508-.052.375.19.484.753.337.626-.164.83-.029.83.545 0 .42.225.766.5.769.333.004.3.136-.1.394-.6.388-.111.618.93.437.181-.031.215.128.076.353s-.052.41.194.41.336.18.2.4-.057.4.176.4.424.3.424.667.119.547.264.402.475.14.733.633.679.853.936.798.467.26.467.7c0 .866 1.029 2.066 2.401 2.8.473.254.771.696.661.982s.002.722.249.969.278.452.069.455.07.239.62.523.975.822.944 1.194.064.677.209.677.604.629 1.018 1.398c.562 1.044.88 1.292 1.255.98.71-.589 1.183.289.559 1.04-.265.32-.371.605-.234.632s.429.095.649.15a8.17 8.17 0 0 0 .787.15c.214.028.291.302.173.61a.74.74 0 0 0 .275.861c.332.206.395.123.196-.259-.16-.309.102-.112.584.438s.969.91 1.083.8.498.343.855 1.007c.649 1.212.869 1.393 1.69 1.393.243 0 .339.27.212.6-.206.537.19.782 1.045.647.282-.044.454.578.347 1.253-.026.165.313.3.753.3.533 0 .8.267.8.8s.267.8.8.8c.549 0 .8.267.8.849 0 .747.081.783.677.3.46-.373.58-.389.376-.049-.165.275-.11.5.123.5s.403.135.377.3c-.135.855.11 1.251.647 1.045.33-.127.6-.031.6.212 0 .814.179 1.039 1.304 1.643.615.33 1.069.715 1.007.855s.339.649.889 1.13.747.744.438.584c-.382-.199-.465-.136-.259.196a.74.74 0 0 0 .861.275c.308-.118.583-.041.61.173a8.49 8.49 0 0 0 .15.787c.055.22.123.512.15.649s.312.031.632-.234c.751-.624 1.629-.151 1.04.559-.312.375-.064.693.98 1.255.769.414 1.398.872 1.398 1.018s.304.239.677.209.883.348 1.135.842.566.791.696.661.474.154.764.631 1.113 1.116 1.828 1.418 1.3.74 1.3.972.45.42 1 .42.955.209.9.467.304.678.798.936.778.587.633.733-.029.264.259.264.996.495 1.575 1.1c1.169 1.224 1.31 1.3 2.398 1.3.574 0 .709.204.545.83-.147.563-.038.805.337.753.932-.13 1.557.001 1.508.317-.153.965.14 1.216 1.222 1.045 1.181-.186 2.383.963 1.711 1.636-.157.157-.106.249.114.205.887-.179 1.834.035 1.628.369-.328.531.649 1.147 1.678 1.057.498-.044 1.128.195 1.4.531.409.505.39.552-.106.27-.358-.204-.465-.194-.267.023.327.357.505.413 1.623.514.305.028.53.358.5.734-.041.495.363.754 1.464.94.837.141 1.737.474 2 .74.374.377.304.426-.32.222-.648-.212-.686-.179-.2.17.33.238 1.197.435 1.927.438 1.158.005 1.293.111 1.065.832-.18.566-.094.802.273.752 1.755-.239 2.735.055 2.735.822 0 .663.267.8 1.553.8 1.217 0 1.599.173 1.763.8.159.606.546.8 1.6.8 1.037 0 1.442.196 1.592.771.139.531.621.812 1.547.9.859.082 1.305.321 1.235.659-.06.291.075.415.3.276s.41-.102.41.083c0 .292.915.5 2.694.613.391.025.391.156 0 .634-.42.512-.358.568.407.371.535-.138.802-.074.659.157-.132.214.003.356.3.315 1.44-.197 2.431.081 2.601.731.135.518.624.728 1.806.774 1.111.044 1.796.313 2.175.855.355.506.92.751 1.571.679.663-.072 1.155.148 1.416.635.219.411.673.747 1.009.747.381 0 .497-.187.309-.5s-.03-.281.41.077c.39.317 1.25.587 1.909.6s1.42.326 1.691.696c.301.412 1.182.723 2.268.8 1.255.09 1.775.303 1.775.727 0 .464.723.651 3.2.827 1.76.124 3.043.259 2.851.3-1.181.248.91 1.273 2.598 1.273 1.16 0 1.951.18 1.951.443 0 .243.277.336.615.207s.707.002.819.294c.135.352 1.108.568 2.885.639l3.181.129c.275.012.419.103.319.202-.641.641 1.21 1.286 3.691 1.286 2.098 0 2.97.175 3.604.725 1.902 1.65 70.27 1.65 72.172 0 .655-.567 1.519-.725 3.975-.725 2.994 0 3.334-.132 3.206-1.242-.016-.133 1.357-.279 3.05-.324 2.154-.057 3.172-.249 3.391-.641a.76.76 0 0 1 .903-.334c.324.125.589.027.589-.216 0-.263.791-.443 1.951-.443 1.688 0 3.779-1.025 2.598-1.273-.192-.041 1.091-.176 2.851-.3 2.477-.176 3.2-.363 3.2-.827 0-.424.52-.637 1.775-.727 1.086-.077 1.967-.388 2.268-.8.271-.37 1.032-.683 1.691-.696s1.519-.283 1.909-.6c.44-.358.596-.387.41-.077s-.073.5.304.5c.332 0 .748-.258.924-.573s.839-.642 1.472-.727 1.381-.469 1.662-.853c.322-.441 1.108-.723 2.125-.763 1.175-.046 1.664-.257 1.799-.774.106-.405.589-.73 1.124-.756.515-.026 1.117-.088 1.337-.139s.715-.121 1.1-.154.655-.284.6-.556c-.061-.301.523-.574 1.5-.7 1.064-.136 1.6-.406 1.6-.805 0-.37.46-.652 1.2-.735 1.356-.153 2.3-.78 1.972-1.31-.121-.195.438-.355 1.242-.355 1.124 0 1.509-.184 1.67-.8.164-.627.546-.8 1.763-.8 1.286 0 1.553-.137 1.553-.8 0-.761.959-1.056 2.7-.83.275.036.5-.303.5-.752 0-.624.261-.819 1.1-.824.605-.003 1.37-.2 1.7-.438.489-.352.452-.387-.2-.193-.788.235-.788.23-.024-.362.428-.331 1.288-.601 1.913-.601.805 0 1.242-.263 1.499-.9.199-.495.373-.759.387-.586s.383.122.821-.112.753-.646.7-.914.162-.432.478-.363c1.015.22 2.426-.322 2.426-.933 0-.534.478-.769 1.3-.639.165.026.3-.313.3-.753s.27-.822.6-.85.915-.066 1.3-.086.927-.441 1.205-.936c.307-.546.739-.809 1.1-.671.411.158.595-.033.595-.614 0-.464.27-.865.6-.893l1.5-.11c.587-.039.881-.299.844-.75-.03-.379.195-.69.5-.69s.556-.191.556-.424.18-.312.4-.176.4-.033.4-.376.258-.624.573-.624.687-.36.827-.8.602-.8 1.027-.8.773-.189.773-.42.608-.675 1.351-.986 1.458-.841 1.588-1.179.491-.615.802-.615.665-.378.785-.84.398-.731.615-.597.634.008.927-.282 1.107-.864 1.81-1.277 1.188-.898 1.077-1.077-.012-.35.221-.377l.924-.118c.275-.038.454-.289.397-.559s.359-.666.924-.881.936-.539.824-.72c-.271-.437 1.203-1.682 1.585-1.339.164.147.174.051.022-.214-.166-.29.165-.72.836-1.084.612-.332.955-.61.763-.619s-.127-.284.145-.612.628-.513.791-.412.503-.272.756-.827.64-.899.859-.764.398-.124.398-.577c0-.557.259-.824.8-.824.533 0 .8-.267.8-.8 0-.541.267-.8.824-.8.453 0 .717-.171.588-.381s.265-.652.876-.984.955-.61.763-.619-.127-.284.145-.612.628-.513.791-.412.503-.272.756-.827c.275-.602.646-.895.921-.726.253.157.365.122.249-.077s.241-.812.791-1.362.877-.775.725-.5-.171.5-.043.5.405-.451.615-1.003.602-.957.872-.9.521-.122.559-.397l.118-.924c.028-.233.197-.332.377-.221s.664-.374 1.077-1.077.988-1.518 1.277-1.81.417-.71.282-.927.135-.494.597-.615.84-.474.84-.785.277-.672.615-.802.869-.844 1.179-1.588.754-1.351.986-1.351.42-.348.42-.773.36-.887.8-1.027.8-.512.8-.827.281-.573.624-.573.512-.18.376-.4-.057-.4.176-.4.424-.25.424-.556.311-.53.69-.5c.451.037.711-.257.75-.844l.11-1.5c.028-.33.429-.6.893-.6.581 0 .772-.184.614-.595-.138-.361.125-.793.671-1.1.495-.278.916-.82.936-1.205l.086-1.3c.028-.33.41-.6.85-.6s.779-.135.753-.3c-.139-.877.094-1.718.419-1.517.501.31 1.015-.557 1.056-1.783.019-.55.24-.957.491-.904s.649-.262.883-.7.285-.807.112-.821.091-.188.586-.387c.637-.257.9-.694.9-1.499 0-.625.27-1.485.601-1.913.592-.764.597-.764.362.024-.194.652-.159.689.193.2.238-.33.435-1.095.438-1.7.005-.839.2-1.1.824-1.1.449 0 .788-.225.752-.5-.226-1.741.069-2.7.83-2.7.663 0 .8-.267.8-1.553 0-1.217.173-1.599.8-1.763.616-.161.8-.546.8-1.67 0-.804.16-1.363.355-1.242.53.328 1.157-.616 1.31-1.972.083-.74.365-1.2.735-1.2.399 0 .669-.536.805-1.6.126-.977.399-1.561.7-1.5.272.055.522-.215.556-.6s.103-.88.154-1.1.113-.822.139-1.337c.028-.566.353-1.018.82-1.14.607-.159.77-.546.753-1.784-.015-1.08.207-1.748.698-2.108.396-.29.79-1.045.875-1.678s.412-1.296.727-1.472.573-.592.573-.924c0-.373-.192-.492-.5-.312-.275.161-.202-.053.162-.476.368-.428.605-1.257.535-1.871-.083-.723.127-1.279.611-1.619s.781-1.126.865-2.298c.09-1.26.303-1.781.727-1.781.464 0 .627-.628.72-2.776.096-2.213.278-2.888.9-3.323.594-.416.78-1.017.78-2.524 0-1.179.179-1.977.443-1.977.243 0 .341-.265.216-.589a.76.76 0 0 1 .334-.903c.392-.219.584-1.237.641-3.391.045-1.693.191-3.066.324-3.05 1.11.128 1.242-.212 1.242-3.206 0-2.456.158-3.32.725-3.975 1.65-1.902 1.65-70.27 0-72.172-.567-.655-.725-1.519-.725-3.975 0-2.994-.132-3.334-1.242-3.206-.133.016-.279-1.357-.324-3.05-.057-2.154-.249-3.172-.641-3.391a.76.76 0 0 1-.334-.903c.125-.324.027-.589-.216-.589-.264 0-.443-.798-.443-1.977 0-1.507-.186-2.108-.78-2.524-.622-.435-.804-1.11-.9-3.323-.093-2.148-.256-2.776-.72-2.776-.424 0-.637-.521-.727-1.781-.084-1.172-.379-1.958-.865-2.298s-.694-.896-.611-1.619c.07-.614-.167-1.443-.535-1.871s-.437-.637-.162-.476c.308.18.5.061.5-.312 0-.332-.258-.748-.573-.924s-.642-.839-.727-1.472-.469-1.381-.853-1.662c-.441-.322-.723-1.108-.763-2.125-.046-1.175-.257-1.664-.774-1.799-.405-.106-.73-.589-.756-1.124-.026-.515-.088-1.117-.139-1.337s-.121-.715-.154-1.1-.284-.655-.556-.6c-.301.061-.574-.523-.7-1.5-.136-1.064-.406-1.6-.805-1.6-.37 0-.652-.46-.735-1.2-.153-1.356-.78-2.3-1.31-1.972-.195.121-.355-.438-.355-1.242 0-1.124-.184-1.509-.8-1.67-.627-.164-.8-.546-.8-1.763 0-1.286-.137-1.553-.8-1.553-.761 0-1.056-.959-.83-2.7.036-.275-.303-.5-.752-.5-.624 0-.819-.261-.824-1.1-.003-.605-.2-1.37-.438-1.7-.352-.489-.387-.452-.193.2.235.788.23.788-.362.024-.331-.428-.601-1.288-.601-1.913 0-.805-.263-1.242-.9-1.499-.495-.199-.759-.373-.586-.387s.122-.383-.112-.821-.631-.753-.883-.7-.472-.354-.491-.904c-.041-1.226-.555-2.093-1.056-1.783-.325.201-.558-.64-.419-1.517.026-.165-.313-.3-.753-.3s-.822-.27-.85-.6-.066-.915-.086-1.3-.441-.927-.936-1.205c-.546-.307-.809-.739-.671-1.1.158-.411-.033-.595-.614-.595-.464 0-.865-.27-.893-.6l-.11-1.5c-.039-.587-.299-.881-.75-.844-.379.03-.69-.195-.69-.5s-.191-.556-.424-.556-.312-.18-.176-.4-.033-.4-.376-.4-.624-.258-.624-.573-.36-.687-.8-.827-.8-.602-.8-1.027-.189-.773-.42-.773-.675-.608-.986-1.351-.841-1.458-1.179-1.588-.615-.491-.615-.802-.365-.661-.811-.778-.785-.363-.753-.547c.165-.94-.09-1.399-.657-1.181-.355.136-.516.069-.377-.157.309-.499-1.036-2.822-1.475-2.551-.18.111-.327.001-.327-.245s-.219-.316-.5-.147c-.34.204-.324.084.049-.376.502-.619.352-.853-.458-.721-.17.027-.48-.401-.69-.953s-.486-1.003-.615-1.003-.109.225.043.5-.174.05-.725-.5-.921-1.139-.823-1.31-.045-.26-.319-.2-.734-.34-1.023-.89-.53-.843-.533-.651-.274.127-.602-.145-.513-.628-.412-.791-.272-.503-.827-.756-.899-.64-.764-.859-.124-.398-.577-.398c-.557 0-.824-.259-.824-.8 0-.533-.267-.8-.8-.8-.541 0-.8-.267-.8-.824 0-.453-.179-.712-.398-.577s-.606-.208-.859-.764-.593-.928-.756-.827-.519-.085-.791-.412-.337-.599-.145-.602-.101-.243-.651-.533-.951-.75-.89-1.023-.03-.417-.2-.319-.76-.273-1.31-.823-.775-.877-.5-.725.5.171.5.043-.461-.409-1.024-.623-.92-.557-.794-.763.061-.478-.148-.607-.494-.048-.634.179c-.354.572-1.101.04-.853-.607.241-.626-.764-1.185-2.42-1.347-.26-.025-.588-.409-.729-.852s-.435-.695-.654-.56-.497-.132-.618-.594-.446-.84-.724-.84-.754-.376-1.06-.837c-.312-.47-1.036-.864-1.653-.9-.655-.037-1.188-.345-1.32-.763-.123-.385-.571-.7-.996-.7s-.752-.135-.726-.3c.131-.825-.106-1.3-.647-1.3-.33 0-.6-.3-.6-.667s-.114-.553-.253-.414-.609.003-1.045-.303-1.074-.448-1.417-.316c-.458.175-.556.062-.369-.426.185-.482-.016-.734-.73-.913-.583-.146-.986-.537-.986-.954 0-.494-.312-.707-1.036-.707-.569 0-1.334-.328-1.7-.728-.624-.684-.621-.696.046-.193.39.294.825.419.966.278s.037-.257-.233-.257-.385-.171-.256-.379-.139-.307-.594-.22c-1.188.229-1.993-.175-1.993-.999 0-.574-.291-.693-1.496-.612-1.616.108-2.897-.869-1.97-1.504.29-.199.168-.275-.325-.203-.476.07-.795-.115-.8-.464-.006-.382-.552-.634-1.596-.735-.978-.095-1.793-.449-2.123-.919-.321-.459-1.007-.765-1.713-.765-.91 0-1.177-.181-1.177-.8 0-.758-.756-1.03-2.3-.83-.275.036-.5-.303-.5-.752 0-.803-.664-1.026-2.5-.839-.463.047-.7-.208-.7-.754 0-.697-.25-.825-1.618-.825-1.318 0-1.595-.129-1.5-.7s-.228-.722-1.741-.82c-1.479-.096-1.902-.287-2.072-.938-.18-.69-.414-.774-1.491-.537-.891.196-1.382.116-1.622-.262-.49-.774-.436-1.239.106-.905.286.177.353.11.176-.176-.351-.568-1.7-.608-2.039-.061-.438.709-1.869-.35-1.603-1.187.209-.66.042-.718-1.581-.549-1.657.173-1.848.101-2.202-.832-.362-.952-.515-1.004-2.26-.765-1.858.255-1.869.249-1.611-.779.283-1.129.499-1.098-3.248-.47-1.192.2-1.327.117-1.54-.949l-.234-1.168-1.858.559c-1.951.588-2.862.153-2.862-1.364 0-.397-.251-.464-.9-.238-2.051.712-3.701.418-3.692-.659.009-1.133-1.637-1.534-3.094-.754-1.196.64-2.586.117-2.888-1.086-.226-.9-.414-1.01-1.344-.785-4.742 1.144-5.282 1.09-5.282-.531 0-1.135-1.153-1.43-2.42-.619-.319.204-1.84.462-3.38.573L236.6 5l-.005-1.2c-.002-.66.178-1.332.4-1.494.239-.173.15-.296-.215-.3-.341-.003-.829.203-1.084.458M242 12.049c0 .193-.27.351-.6.351-.345 0-.6-.361-.6-.849 0-.709.099-.767.6-.351.33.274.6.656.6.849m1.6 2.751c0 .444-.267.8-.6.8s-.6-.356-.6-.8.267-.8.6-.8.6.356.6.8m-10 1.6c0 .44.18.8.4.8s.4-.36.4-.8-.18-.8-.4-.8-.4.36-.4.8m7.6 7.8c0 .373-.378.6-1 .6s-1-.227-1-.6.378-.6 1-.6 1 .227 1 .6m-.6 3.028c0 .309-.315.622-.7.696-.689.133-.975-.716-.425-1.266.419-.419 1.125-.062 1.125.57m-11 14.172c0 .333-.356.6-.8.6s-.8-.267-.8-.6.356-.6.8-.6.8.267.8.6M189 82c0 .324-.315.65-.7.724-.491.094-.7-.122-.7-.724s.209-.818.7-.724c.385.074.7.4.7.724m-32.188 13.184c-.324.205-.473.489-.331.631.35.35 1.919-.175 1.919-.642 0-.476-.827-.47-1.588.011m-2.006 2.516c.005.728.08.785.394.3.501-.776.501-1.2 0-1.2-.22 0-.397.405-.394.9m-1.967 6.76c-.557 1.597-.562 3.017-.012 3.356.65.402.802.059 1.054-2.374.258-2.506-.32-3.052-1.042-.982m-1.387 5.64c-.362 1.352-.3 4.223.097 4.468.378.234.84-1.981.847-4.068.005-1.488-.585-1.739-.944-.4m20.688 53.073c-1.132.181-2.3.479-2.595.661s-1.618.635-2.941 1.006c-2.45.687-2.417.802.396 1.413 1.325.287 1.621.529 1.723 1.406.075.648.425 1.139.9 1.263.658.172.777.562.777 2.554 0 3.156-2.943 6.393-6 6.601-1.641.112-1.811.223-1.929 1.247-.172 1.505-1.42 1.31-1.6-.25-.118-1.026-.251-1.109-1.6-.996l-1.471.122-.2 3.146c-.199 3.127-.204 3.14-.962 2.3-1.204-1.336-4.857-.279-5.923 1.714-.548 1.022-.157 4.93.644 6.44.35.66.643 1.47.652 1.8s.364 1.32.789 2.2.779 1.916.786 2.301c.065 3.349 9.657 15.599 14.82 18.927 7.812 5.034 10.512 6.141 20.594 8.442 4.484 1.023 19.064 1.055 23.2.05l4.6-1.077c4.521-.996 8.468-2.591 13.556-5.474 9.358-5.305 19.01-18.621 20.853-28.769.159-.88.583-2.673.941-3.984.792-2.906.89-8.216.15-8.215-.275 0-1.531.716-2.791 1.59-10.052 6.978-26.947 7.267-38.235.654-5.909-3.462-6.795-4.115-10.874-8.02-7.742-7.41-17.998-10.696-28.26-9.052m-18.243 5.77c-.826.472-1.6 1.16-1.718 1.531s-.523.755-.898.854-.051.192.719.208c1.926.039 6-2.209 6-3.31 0-.542-2.731-.064-4.103.717m-4.387 3.657c-.615 2.024-.735 4.828-.287 6.694l.483 2.016.58-1.355c.578-1.352.525-3.097-.198-6.555-.259-1.238-.39-1.419-.578-.8m12.966.1c.074.385.4.7.724.7s.65-.315.724-.7c.094-.491-.122-.7-.724-.7s-.818.209-.724.7m-70.4 47.6c.149 1.802 3.124 2.682 3.124.924 0-.557.259-.824.8-.824 1.239 0 .997 1.559-.478 3.081-1.4 1.444-1.922 1.639-1.922.719 0-.419-.422-.6-1.4-.6-1.119 0-1.4-.156-1.4-.776 0-.608-.325-.803-1.5-.9-1.419-.117-1.507-.205-1.624-1.624l-.124-1.5h2.2 2.2l.124 1.5m-14 4c.074.385.4.7.724.7s.65-.315.724-.7c.094-.491-.122-.7-.724-.7s-.818.209-.724.7m-4.476 3.671c0 1.362-.131 1.629-.8 1.629-.533 0-.8.267-.8.8 0 1.028 1.207 1.059 1.474.037.11-.42.556-.856.991-.97 1.046-.273.908-2.79-.165-2.993-.574-.109-.7.161-.7 1.497M.76 232.1c-.332.839-.135 2.188.296 2.023.374-.143.418-.411.151-.91-.208-.389-.265-.821-.126-.96s.132-.253-.014-.253-.285.045-.307.1m1.933 11.1c.377.44.718.8.758.8s-.02-.36-.135-.8-.457-.8-.759-.8c-.42 0-.389.187.136.8m1.39 6.423c.377.219.582.662.458.988s-.027.589.216.589c.684 0 .524-1.484-.19-1.757-.967-.371-1.249-.267-.484.18m1.248 3.777c.064.44.331.755.593.7s.476.08.476.3-.277.4-.616.4c-.506 0-.524.099-.1.559.442.478.563.477.84-.008.386-.674-.034-2.254-.519-1.954-.185.114-.439-.018-.564-.295s-.174-.142-.11.298M42 260.224a.59.59 0 0 1-.6.576c-.602 0-.822-.844-.344-1.322.373-.374.944.077.944.746m-35.194.252c-.003.592.205 1.207.462 1.366.313.194.385.073.217-.366-.151-.391.004-.798.383-1.01.436-.244.494-.443.183-.634-.248-.154-.454-.044-.457.244-.005.381-.112.36-.394-.076-.303-.469-.389-.366-.394.476m1.594 2.71c0 .228.315.427.7.442.573.023.591.078.1.3-.711.322-1.029 1.672-.394 1.672.243 0 .33-.18.194-.4s-.057-.4.176-.4c.649 0 .504.715-.227 1.125-.359.2-.494.455-.3.567s.762-.224 1.265-.745.728-.947.5-.947-.414-.264-.414-.586-.36-.779-.8-1.014c-.542-.29-.8-.295-.8-.014m3 8.014c-.136.22.024.4.357.4.857 0 1.456 1.228 1.008 2.065-.224.42-.222.776.006.917.429.265 1.03-.514.673-.872-.131-.13-.034-.481.215-.781.344-.415.281-.732-.266-1.337-.78-.861-1.603-1.023-1.993-.392m-.2 1.151c0 .193.26.567.577.83.474.393.567.33.515-.351-.059-.781-1.092-1.234-1.092-.479m38.724.349c-.074.385-.4.7-.724.7s-.65-.315-.724-.7c-.094-.491.122-.7.724-.7s.818.209.724.7m-3.124 1.5c0 .333-.356.6-.8.6s-.8-.267-.8-.6.356-.6.8-.6.8.267.8.6m-32.628 1.755c.12.195-.109.44-.51.545-.823.215-1.007 1.5-.215 1.5.282 0 .7.315.929.7.335.564.398.428.32-.7-.063-.924.069-1.368.39-1.305.28.055.389-.156.257-.5-.126-.327-.49-.595-.809-.595s-.483.16-.362.355m4.768 9.458c-.124.323-.397.587-.606.587s-.27-.18-.134-.4.012-.403-.276-.406c-.392-.005-.377-.099.057-.374.746-.472 1.248-.162.959.593" fill="#900a0d"/><path d="M175.1.289c.715.089 1.885.089 2.6 0s.13-.161-1.3-.161-2.015.073-1.3.161M164 1.2l-.922.8h2.475c2.351 0 2.454-.04 2.047-.8-.272-.509-.838-.8-1.553-.8-.618 0-1.54.36-2.047.8m69.899-.565c-.6.599.282 1.365 1.572 1.365 1.173 0 1.302-.084.839-.547-.671-.671-2.08-1.149-2.411-.818M156.2 2.8c-.714.789-.699.8 1.091.8 1.473 0 1.855-.15 2.023-.791.239-.917-.798-.936-1.884-.034-.558.463-.613.446-.396-.118.337-.879.045-.828-.834.143m86.737-.22c.148.387.03.505-.357.357-.319-.123-.58-.023-.58.22s.568.443 1.262.443c1.237 0 1.247-.016.538-.8-.854-.944-1.172-1.025-.863-.22m-93.725 1.797c-.417.781-.335.823 1.603.823 1.73 0 2.023-.107 1.911-.7-.208-1.099-2.941-1.194-3.514-.123M144.4 5.624c0 .233.225.309.5.17s.151.03-.276.376c-.745.604-.724.63.5.63 1.361 0 1.795-.915.643-1.357-.927-.356-1.367-.298-1.367.181m-5.385 1.882c-.115.3-.391.433-.612.296s-.403-.059-.403.174.72.424 1.6.424c1.114 0 1.6-.172 1.6-.567 0-.311.225-.662.5-.778s-.17-.185-.988-.152c-.84.033-1.58.296-1.697.603m121.235-.387c-.3.485.46 1.507.828 1.115.177-.189.096-.424-.18-.523s-.401-.344-.277-.545.136-.366.026-.366-.289.144-.397.319M133.641 8.951c-.358.431-.318.611.182.802 1.09.419 1.733.277 2.133-.47.488-.912-1.587-1.21-2.315-.332m-4.655 1.471c-.316.512-.191.673.614.787 1.234.176 2-.025 2-.524 0-.633-2.245-.859-2.614-.263m140.816.229c.936.684 1.517.706 1.298.049-.091-.275-.59-.522-1.107-.549-.894-.046-.904-.021-.191.5m-143.753.91c-.613.389-.277 1.239.489 1.239.271 0 .519-.36.552-.8.066-.87-.19-.978-1.041-.439m-4.383 1.693c-1.241.459-1.068 1.146.287 1.146.782 0 1.215-.236 1.345-.733.209-.796-.269-.917-1.632-.413m-3.615 1.655c-.709.709-.533 1.091.502 1.091 1.136 0 1.74-1.408.64-1.491-.38-.028-.894.152-1.142.4m-2.447 1.687c-.272.327-.654.497-.849.376s-.355-.016-.355.232c0 .734 1.718.26 1.828-.504.124-.855.014-.873-.624-.104m-16.561 8.037c-.359.934-.332.967.771.967.89 0 .962-.098.586-.8-.515-.963-1.028-1.026-1.357-.167m-3.03 1.742c-.351.657-.287.766.419.713 1.157-.088 1.907-1.488.796-1.488-.44 0-.987.349-1.215.775M91.2 29.4c0 .333.356.6.8.6.954 0 1.061-.614.167-.957s-.967-.316-.967.357m-4.3 2.465c-.275.111-.5.491-.5.845 0 .531.104.508.601-.134s.56-.66.357-.076c-.136.392-.049.7.199.7s.443-.36.443-.8c0-.808-.192-.902-1.1-.535m-4.8 3.533c-.658.748-.637.821.261.889.446.034.844-.262.962-.715.236-.901-.492-1.004-1.223-.174M75.8 40c-.335.542.117 1.2.824 1.2.317 0 .576-.36.576-.8 0-.828-.965-1.104-1.4-.4m-8.01 6.83c-.144.457-.365.728-.49.604-.298-.298-1.3.543-1.3 1.091 0 .236.264.079.587-.349.451-.596.593-.637.612-.176.02.475.11.454.433-.1.224-.385.669-.7.988-.7s.58-.27.58-.6c0-.902-1.108-.721-1.41.23M46.451 67.96c-.302.191-.48.552-.397.803.092.276.426.136.845-.354.719-.839.505-1.053-.448-.449m111.862 29.319c-.839.636-1.913 3.144-1.913 4.466 0 .534-.331 2.115-.736 3.513l-1.623 6.542-1.638 7-1.613 6.8-1.438 5.8-.924 3.8-2.228 9.6c-1.148 4.597-1.904 7.888-2.39 10.4-.276 1.43-.681 3.05-.899 3.6s-.518 1.935-.665 3.077-.512 2.672-.812 3.4c-1.653 4.019-1.679 19.105-.042 24.094.294.896.657 2.259.807 3.029.726 3.745 3.602 10.617 6.43 15.365 2.508 4.21 9.449 11.82 12.549 13.758a39.07 39.07 0 0 1 2.422 1.709c3.688 2.822 13.598 7.097 18.518 7.989 4.475.812 4.937 1.152 6.682 4.93 5.156 11.161 4.696 32.502-1.084 50.249l-.716 2.2-16 8-16 8v3 3l45.557.102 46.1-.349c.563-.468.762-4.118.29-5.347-.141-.367-6.378-3.662-14.1-7.448-17.171-8.419-17.169-8.419-17.878-9.197-.321-.351-.829-1.521-1.131-2.6s-.741-2.501-.976-3.161c-4.114-11.516-4.704-34.93-1.114-44.2 2.12-5.474 2.721-6.08 6.926-6.989 2.435-.526 4.763-1.268 9.926-3.164 13.778-5.058 27.385-20.639 30.605-35.047l.927-4c1.895-8.023 1.807-17.554-.234-25.2-.323-1.21-.99-4-1.482-6.2l-1.468-6.2c-.315-1.21-.73-3.01-.921-4-.418-2.17-1.461-6.59-2.265-9.6a68.71 68.71 0 0 1-.93-4c-.324-1.697-.904-4.107-2.215-9.2-.88-3.418-1.862-7.621-2.244-9.6-.191-.99-.612-2.79-.935-4-.836-3.131-1.833-7.387-2.419-10.328-.277-1.391-.755-2.774-1.062-3.074-.814-.796-84.609-1.304-85.644-.519M24.4 99.4c-.278.335-.321.6-.098.6s.624-.27.898-.6c.278-.335.321-.6.098-.6s-.624.27-.898.6m-10.7 21.665c-.275.111-.486.502-.468.868.019.42.106.481.234.165.111-.277.337-.42.501-.318s.3-.077.3-.398-.015-.568-.034-.55-.258.122-.533.233M8.88 133.68c-.626.626-.611 1.12.035 1.12.283 0 .542-.36.575-.8.07-.935.028-.958-.61-.32m-6 22.4c-.562.562-.648 1.271-.114.941.201-.124.457 0 .568.277s.217.007.234-.598c.036-1.243-.017-1.291-.688-.62m180.32 6.098c6.405.932 11.619 3.545 16.8 8.419 3.797 3.571 7.006 6.072 9.8 7.637 7.458 4.177 13.119 5.766 20.546 5.766 7.606 0 18.407-3.569 21.281-7.033.582-.701 1.744-.736 2.263-.067.51.657-.706 9.881-1.833 13.9-7.079 25.247-29.356 39.158-58.057 36.253-5.947-.601-7.108-.841-13.4-2.76-2.759-.841-9-3.853-10.231-4.937-.348-.306-.754-.556-.904-.556-2.895 0-16.665-16.241-16.665-19.655 0-.322-.166-.756-.368-.965-2.532-2.614-5.906-22.985-4.367-26.364.491-1.077 4.989-3.886 8.535-5.328 10.82-4.403 17.984-5.563 26.6-4.31M1.064 164.729c-.959 1.06-.818 1.425.169.438.459-.459.758-.91.665-1.003s-.468.161-.834.565" fill="#eee3db"/><path d="M182.6.4c-.315.509.612.509 1.4 0 .488-.315.436-.389-.276-.394-.482-.003-.988.174-1.124.394m-12.266.351c1.063.674.227 1.632-1.434 1.643-.495.003-.9.169-.9.368 0 .413 3.061.103 4.064-.411 1.154-.592.447-1.952-1.011-1.945-.839.004-1.077.118-.719.345m-8.922 2.114c.173.895-1.234 1.333-3.234 1.009-1.842-.299-1.777.362.07.709 1.532.287 4.581-.066 4.456-.516-.041-.147.174-.717.477-1.267.505-.918.495-.955-.116-.451-.366.302-.665.377-.665.167s-.254-.383-.564-.383c-.331 0-.506.302-.424.732M164.4 2.4c.33.213 1.05.378 1.6.366.916-.02.933-.051.2-.366-1.184-.509-2.587-.509-1.8 0m-10.281 1.987c-.275 1.051-1.211 1.293-3.886 1.005-2.045-.221-2.233-.174-2.233.556 0 .984-1.121 1.378-2.948 1.035-1.736-.325-3.084.069-2.796.818.169.441-.371.586-2.521.68-2.429.106-2.72.204-2.605.875.122.703-.091.742-3 .549-1.721-.115-2.815-.127-2.43-.027 1.808.467.761 1.803-1.3 1.661-1.1-.077-2.023-.004-2.05.161l-.105.8c-.036.337-.78.492-2.28.474-2.156-.024-2.22.006-2.037.963.184.963.143.981-1.669.733-1.112-.152-1.879-.097-1.909.138l-.107.892c-.038.331-.672.474-1.88.423-1.639-.069-1.819.011-1.792.8.025.761-.182.877-1.571.877-1.302 0-1.578.13-1.482.7.125.745-.134.825-2.274.705-1.193-.067-1.33.024-1.137.76.194.742.043.835-1.344.835-1.296 0-1.563.137-1.563.8 0 .679-.267.8-1.763.8-1.565 0-1.739.089-1.553.8.184.702.012.8-1.4.8s-1.584.098-1.4.8.012.8-1.437.8c-1.209 0-1.647.162-1.647.61 0 .335-.45.781-1 .99s-1 .578-1 .819-.489.381-1.092.31c-.862-.102-1.205.103-1.623.973-.476.989-.692 1.081-2.106.904-.867-.109-1.556-.065-1.53.098.136.876-.131 1.296-.826 1.296-.562 0-.734.222-.623.8.16.829.064.87-2.1.891-1.006.01-1.3.184-1.3.773 0 .419-.27.865-.6.991s-.6.481-.6.788c0 .326-.456.582-1.1.618l-1.7.109c-.335.028-.548.354-.482.739.08.476-.149.691-.738.691-.518 0-.937.315-1.064.8-.115.44-.458.8-.763.8s-.553.36-.553.8c0 .613-.267.8-1.138.8a2.85 2.85 0 0 0-1.862.8c-.398.44-.966.8-1.262.8s-.538.27-.538.6-.241.6-.536.6-.745.46-1.001 1.023-.633.919-.836.794-.428.179-.498.677c-.083.584-.449.951-1.029 1.034-.495.07-.9.385-.9.7s-.26.572-.577.572-.849.387-1.181.861c-.341.487-1.088.89-1.722.929-.779.048-1.103.273-1.064.74.05.607-.336.847-1.156.717-.282-.044-.454.578-.347 1.253.026.165-.191.3-.481.3-.512 0-2.103 1.558-2.082 2.039.024.563-1.162 1.58-1.634 1.4-.31-.12-.433.016-.308.341.178.466-.438 1.184-1.048 1.22-.49.029-2.4 1.997-2.4 2.472 0 .29-.135.507-.3.481-.675-.107-1.297.065-1.253.347.13.82-.11 1.206-.719 1.156-.37-.031-.775.304-.9.744s-.478.8-.783.8c-.318 0-.609.496-.679 1.159-.068.637-.334 1.357-.59 1.6-.35.332-.398.218-.194-.459.17-.562.102-.9-.179-.9-.247 0-.339.18-.203.4s.062.4-.164.4-.313.256-.193.569c.405 1.054-.599 2.363-1.348 1.757-.476-.386-.569-.393-.348-.026.172.286.1.5-.166.5-.257 0-.367.261-.244.58.156.407.03.506-.423.332-.406-.156-.546-.087-.377.186.147.238.042.516-.235.616-.403.145-.402.35.002 1.035.278.47.368.824.2.788s-.844.172-1.504.463-1.335.5-1.5.465-.279.07-.253.235c.171 1.084-.154 3.016-.387 2.3-.495-1.523-1.168-1.039-1.1.791.073 1.948-.738 3.653-1.184 2.49-.136-.354-.113-.859.05-1.124.189-.304.128-.376-.164-.195-.254.157-.462.642-.462 1.079 0 .516-.229.753-.655.677-.618-.112-.827.327-1.036 2.182-.044.385-.233.7-.421.7s-.219-.386-.07-.858c.234-.736.19-.781-.306-.318-.678.634-.764 1.572-.208 2.276.216.275.237.503.045.506s-.079.197.251.431c.533.377.533.404 0 .243-.33-.099-.553-.388-.496-.642.062-.274-.304-.194-.9.196-.947.621-1.191 1.079-1.029 1.934.039.202-.182.159-.489-.097-.583-.483-1.09-.25-1.08.496.004.291.102.284.3-.023.213-.33.436-.302.81.1.429.462.37.556-.347.556-.657 0-.814.185-.659.778.149.571-.024.81-.653.9-.531.076-.836.389-.801.822.049.629-.323.874-1.142.752-.157-.023-.182.228-.055.558s.015.86-.249 1.178-.346.793-.183 1.056.128.375-.084.244c-.823-.508-1.536.392-.937 1.182.383.503.393.586.034.269-.541-.477-2.04.404-2.04 1.199 0 .198.27.136.6-.138.346-.287.6-.326.6-.092 0 .224-.258.505-.573.626s-.63.815-.7 1.543c-.08.833-.343 1.323-.709 1.323-.32 0-.693.45-.828 1s-.514.981-.842.957c-.441-.032-.596.388-.591 1.6.006 1.466-.089 1.63-.875 1.518-.768-.109-.882.06-.882 1.3 0 .784.135 1.404.3 1.378 1.648-.261 2.857.732 1.736 1.425-.522.323-1.674-.192-1.405-.628.125-.202-.326-.325-1.002-.273-1.337.101-1.598.886-.795 2.387.384.718.338.781-.4.547-.508-.162-.834-.089-.834.186 0 .247-.18.339-.4.203-.237-.147-.4.318-.4 1.143 0 .765.225 1.481.5 1.592.336.136.3.212-.111.233-.915.048-1.985 1.496-2.021 2.737-.017.602-.122.87-.233.595s-.377-.5-.592-.5-.279.18-.143.4.101.4-.079.4-.382 1.033-.451 2.295c-.142 2.578-.237 2.796-.96 2.197-.392-.324-.53-.142-.597.783-.078 1.081.01 1.181.854.969 1.105-.277 1.852.437 1.641 1.57l-.177 1.161c-.017.206-.535-.109-1.152-.699-.907-.87-1.223-.979-1.659-.575s-.474.386-.202-.101c.28-.501.232-.516-.288-.095-.378.306-.571.96-.49 1.657.102.874-.055 1.201-.653 1.357-.433.113-.787.425-.787.693 0 .368.134.375.553.027.427-.354.607-.32.788.151.207.539-.17.786-1.017.665-.495-.07-.738 1.372-.522 3.095.183 1.456.115 1.672-.495 1.569s-.717.237-.778 2.474c-.059 2.143-.224 2.717-.957 3.31-1.033.836-.853 1.146.775 1.336 1.286.149 1.229.427.699-3.368-.183-1.313-.17-1.326 1.211-1.14 1.27.171 2.387.667 1.51.67-.202.001-.408.833-.458 1.849s-.29 2.086-.532 2.378c-.615.741-.965 3.135-.408 2.791.574-.354.561 1.091-.014 1.666-.758.758.014 1.315 1.822 1.315 1.393 0 1.77-.156 1.939-.8.274-1.049 1.484-1.049 1.484 0 0 .533.267.8.8.8.543 0 .8-.267.8-.829 0-1.183 1.362-.83 1.536.398.226 1.59 1.014 2.031 3.635 2.031H24.8v-1.437c0-1.101.187-1.487.8-1.647 1.901-.497.907-1.716-1.4-1.716s-3.301-1.219-1.4-1.716c.44-.115.8-.496.8-.847 0-1.018 2.646-.871 2.916.163.364 1.393 1.484.976 1.484-.553 0-1.017.199-1.406.8-1.563 1.034-.27 1.034-1.329 0-1.6-2.119-.554-.804-1.45 2.3-1.567l3.1-.117.124-1.5.124-1.5h3.014c2.676 0 3.036-.089 3.222-.8.115-.44.458-.8.763-.8.68 0 .728-1.265.073-1.92-.373-.373-.37-.59.013-.973.391-.391.542-.308.727.4.7 2.679 3.74.434 3.74-2.763 0-.823.18-1.608.4-1.744s.4-.687.4-1.224c0-.886.161-.976 1.751-.976 1.119 0 1.943-.232 2.284-.642.292-.353.945-.798 1.449-.99s.916-.623.916-.958.287-.61.637-.61.728-.343.837-.763.543-.853.963-.963c.636-.166.763-.572.763-2.437 0-1.607.151-2.237.538-2.237.296 0 .867-.364 1.269-.808.954-1.054 3.393-.99 3.393.09 0 .971.656.913.916-.082.115-.44.496-.8.847-.8.37 0 .637.335.637.8 0 .667.267.8 1.6.8 1.758 0 2.326-1.085.779-1.49-.669-.175-.799-.483-.7-1.662l.121-1.448 2.3-.12 2.3-.12v-1.3c0-.715.196-1.496.435-1.735.313-.313.313-.51 0-.703-.239-.148-.435-.709-.435-1.246 0-.709-.218-.976-.8-.976-.533 0-.8-.267-.8-.8 0-.465.267-.8.637-.8.351 0 .732.36.847.8.266 1.018 1.716 1.077 1.716.07 0-1.691 2.546-3.084 2.933-1.604.191.731.323.786.847.351.767-.637.801-1.217.072-1.217-1.273 0-1.515-7.554-.252-7.884.675-.177.8-.546.8-2.363 0-2.409.799-2.901 2.2-1.353.882.974 2.477 1.035 3.475.132.715-.647.71-.696-.139-1.6L81.061 86h1.807C84.857 86 86 85.157 86 83.69c0-.726.27-.864 1.9-.968 1.368-.088 1.9-.29 1.9-.722a1.22 1.22 0 0 1 .5-.92c.672-.43.678-6.805.008-7.879-.406-.649-.376-.905.169-1.449.879-.879 1.923-.426 1.923.835 0 .634.225 1.013.6 1.013a.6.6 0 0 1 .6.6c0 .333.356.6.8.6s.8-.267.8-.6-.298-.6-.662-.6c-.595 0-.589-.081.062-.8.398-.44 1.115-.8 1.592-.8 1.592 0 2.689-1.623 1.998-2.954-.781-1.506-.48-1.846 1.634-1.846 1.473 0 1.776-.129 1.776-.753 0-.417.357-.847.8-.963s.8-.475.8-.8.36-.685.8-.8c.668-.175.8-.546.8-2.247 0-1.77.105-2.037.8-2.037.444 0 .8.267.8.6 0 .881 1.743.747 2.6-.2.398-.44.966-.8 1.262-.8s.538-.249.538-.553.36-.648.8-.763c.613-.16.8-.546.8-1.647 0-1.17.148-1.437.8-1.437.517 0 .8-.267.8-.753 0-.417.357-.847.8-.963.613-.16.8-.546.8-1.647 0-1.17.148-1.437.8-1.437s.8-.267.8-1.418c0-.973.309-1.727.982-2.4 1.207-1.207 2.218-1.277 2.218-.153 0 .573.215.788.695.696 1.009-.195 1.167-1.525.181-1.525-.459 0-.874-.348-1.003-.842-.187-.715-.074-.813.754-.655.809.155.973.026.973-.758 0-.659.228-.945.753-.945.417 0 .847-.357.963-.8.166-.636.012-.8-.753-.8-.871 0-.963-.168-.963-1.751 0-2.039 1.069-3.435 1.467-1.915.377 1.442 1.3 1.013 1.579-.734.141-.881.482-1.6.758-1.6s.597-.36.712-.8.475-.8.8-.8.685-.36.8-.8.475-.8.8-.8.685-.36.8-.8.475-.8.8-.8.685-.36.8-.8.475-.8.8-.8.69-.379.811-.842c.341-1.305 1.259-.665 1.397.973.068.808.216 1.469.329 1.469.679 0 1.4-1.421 1.419-2.796.022-1.572.051-1.604 1.475-1.609 3.074-.012 4.989-2.416 2.453-3.079-.686-.179-.8-.546-.8-2.563 0-2.445-1.199-3.53-1.716-1.553-.27 1.034-1.329 1.034-1.6 0-.115-.44-.496-.8-.847-.8-.37 0-.637.335-.637.8 0 1.222-1.772 1.028-3.097-.339-1.518-1.569-4.471-2.001-5.546-.814-1.629 1.8-6.577 2.72-7.113 1.322-.2-.521.042-.61 1.398-.512 1.258.091 1.776-.065 2.222-.669.418-.566 1.053-.788 2.259-.788 1.474 0 1.666-.103 1.589-.856-.074-.727.183-.897 1.7-1.125 1.443-.216 1.788-.425 1.788-1.081 0-.747.164-.791 2.033-.533 1.806.248 2.101.182 2.642-.59.483-.69.94-.846 2.212-.754 1.259.091 1.757-.075 2.322-.773.549-.678 1.143-.888 2.506-.888 1.917 0 2.947-.741 2.532-1.821-.195-.508-.066-.57.656-.318 2.049.715 4.297.172 4.297-1.038 0-.698.17-.765 1.3-.516 2.751.607 4.869.364 5.295-.607.217-.495.532-.9.7-.9s.305-.18.305-.4c0-.784-2.066-.434-2.281.387M140.8 14.849c0 .709.099.767.6.351.33-.274.6-.656.6-.849s-.27-.351-.6-.351c-.345 0-.6.361-.6.849m0 4.702c0 .488.255.849.6.849.33 0 .6-.158.6-.351s-.27-.575-.6-.849c-.501-.416-.6-.358-.6.351m-23.214.032c.546.345-.46 1.028-1.696 1.152-.17.017-.825.336-1.455.708-1.3.768-2.548.518-2.182-.437.18-.468.571-.563 1.559-.377 1.077.202 1.401.093 1.768-.591.484-.905 1.081-1.04 2.006-.455m184.635 6.371c.135.135.456.254.712.264s.418.249.357.53.053.411.253.287.879.158 1.51.626c.929.688.884.592-.237-.506-.761-.745-1.712-1.376-2.113-1.401s-.618.065-.482.2M33.6 89.351c0 .083-.27.375-.6.649-.491.408-.6.38-.6-.151 0-.357.27-.649.6-.649s.6.068.6.151m39.68 7.129c-.373.373-.48.267-.48-.48s.107-.853.48-.48.373.587 0 .96M68 100.8c0 .44-.18.8-.4.8s-.4-.36-.4-.8.18-.8.4-.8.4.36.4.8m-51.482 22.442c-.644.644-1.281.102-1.026-.873.198-.755.275-.774.846-.203.463.464.51.746.18 1.076m-3.501 5.658c1.382-.756 2.028 2.801.822 4.523-.308.44-.768 1.572-1.022 2.515-.465 1.727-1.379 2.118-1.458.623-.022-.424-.313-1.31-.645-1.966-.771-1.525-.546-2.128.705-1.889.946.181.988.106.921-1.658-.038-1.017-.182-1.848-.319-1.848s-.25-.372-.25-.827c0-.786.027-.791.532-.1.292.4.614.682.714.627m27.783 5.9c0 .22.27.4.6.4s.6-.18.6-.4-.27-.4-.6-.4-.6.18-.6.4m-11.2 7.353c0 1.032-.197 1.405-.828 1.57-1.079.282-.972 2.795.128 3.003.4.076.7-.111.7-.435 0-.312.36-.893.8-1.291.566-.512.8-1.232.8-2.462 0-1.471-.123-1.738-.8-1.738-.642 0-.8.267-.8 1.353m-23.3 2.112c.834.337.612 1.711-.25 1.545-.565-.109-.75.092-.75.815 0 .528.142.873.316.765s.421.031.55.308c.188.403.28.403.468 0 .129-.277.399-.401.6-.277s.366-.133.366-.571c0-1.258-.73-2.853-1.29-2.818-.401.024-.403.074-.01.233m-1.088 6.608c-.008.715-.279 1.158-.812 1.327-.904.287-1.048.833-.3 1.135.4.161.4.208 0 .233-.283.018-.48.509-.454 1.132.029.677.117.831.23.4.1-.385.349-.722.553-.75l.871-.1c.635-.064.881-2.806.336-3.743-.356-.612-.413-.563-.424.366M3.6 158c-.007.797-.143 1.194-.317.921-.411-.647-1.055-.125-1.208.979-.089.641.083.908.6.928.649.025.641.064-.075.372-.653.281-.676.349-.123.372 1.441.06 2.473-2.902 1.523-4.372-.291-.451-.391-.252-.4.8m-2.218 5.74c-.911 1.002-1.036 1.606-.159.771.513-.489.853-.966.755-1.06s-.366.037-.596.289m.606.86c-.038.22-.037.984.002 1.698.083 1.517-.999 2.991-1.321 1.801-.105-.384-.172-.14-.149.543.041 1.226.207 1.311 1.98 1.009.406-.069.329-3.653-.1-4.651-.189-.44-.375-.62-.412-.4M.249 178.056c-.374 1.867-.314 2.969.135 2.52.505-.505.846-3.31.434-3.565-.176-.109-.433.362-.569 1.045M.4 234.725c0 .194.36.768.8 1.275.791.912.8.913.8.075 0-.466-.36-1.04-.8-1.275s-.8-.269-.8-.075m9.755 35.37c.026.526.347.952.778 1.035.697.134.699.091.054-.894-.827-1.263-.89-1.273-.832-.141" fill="#cc1420"/><path d="M183 .677c-1.516.552-5.146.544-9.337-.022-1.162-.157-1.311-.08-1.136.588.353 1.351-5.946 2.458-7.727 1.357-.794-.491-2.4-.614-2.4-.184 0 .237.18.32.4.184s.4-.067.4.153-.183.513-.407.651-.312.403-.198.588c.308.499-2.677.904-4.347.591-.797-.15-1.448-.445-1.448-.656 0-.526-.982.508-1.313 1.382-.148.39-.546.815-.884.945-.895.344-5.055-.247-4.788-.679.125-.201-.053-.259-.394-.128s-.621.585-.621 1.008c0 1.18-2.274 1.712-4.297 1.006-.722-.252-.851-.19-.656.318.415 1.08-.615 1.821-2.532 1.821-1.363 0-1.957.21-2.506.888-.565.698-1.063.864-2.322.773-1.272-.092-1.729.064-2.212.754-.541.772-.836.838-2.642.59-1.869-.258-2.033-.214-2.033.533 0 .656-.345.865-1.788 1.081-1.517.228-1.774.398-1.7 1.125.077.753-.115.856-1.589.856-1.206 0-1.841.222-2.259.788-.446.604-.964.76-2.222.669-1.356-.098-1.598-.009-1.398.512.536 1.398 5.484.478 7.113-1.322 1.075-1.187 4.028-.755 5.546.814 1.325 1.367 3.097 1.561 3.097.339 0-1.049 1.21-1.049 1.484 0 .115.44.475.8.8.8s.685-.36.8-.8c.517-1.977 1.716-.892 1.716 1.553 0 2.017.114 2.384.8 2.563 2.536.663.621 3.067-2.453 3.079-1.424.005-1.453.037-1.475 1.609-.019 1.375-.74 2.796-1.419 2.796-.113 0-.261-.661-.329-1.469-.136-1.616-1.054-2.284-1.387-1.01-.116.443-.554.895-.974 1.005s-.763.465-.763.79-.36.685-.8.8-.8.475-.8.8-.36.685-.8.8-.8.475-.8.8-.36.685-.8.8-.8.496-.8.847-.247.637-.549.637c-.331 0-.65.635-.805 1.6-.279 1.747-1.202 2.176-1.579.734-.398-1.52-1.467-.124-1.467 1.915 0 1.583.092 1.751.963 1.751.765 0 .919.164.753.8-.116.443-.546.8-.963.8-.525 0-.753.286-.753.945 0 .784-.164.913-.973.758-.828-.158-.941-.06-.754.655.129.494.544.842 1.003.842.986 0 .828 1.33-.181 1.525-.48.092-.695-.123-.695-.696 0-1.124-1.011-1.054-2.218.153-.673.673-.982 1.427-.982 2.4 0 1.151-.15 1.418-.8 1.418s-.8.267-.8 1.437c0 1.101-.187 1.487-.8 1.647-.443.116-.8.546-.8.963 0 .486-.283.753-.8.753-.652 0-.8.267-.8 1.437 0 1.101-.187 1.487-.8 1.647-.44.115-.8.458-.8.763s-.242.553-.538.553-.864.36-1.262.8c-.857.947-2.6 1.081-2.6.2 0-.333-.356-.6-.8-.6-.695 0-.8.267-.8 2.037 0 1.669-.138 2.074-.763 2.237-.42.11-.853.543-.963.963s-.486.763-.837.763c-.37 0-.637.335-.637.8 0 .68-.267.8-1.776.8-2.114 0-2.415.34-1.634 1.846.691 1.331-.406 2.954-1.998 2.954-.477 0-1.194.36-1.592.8-.651.719-.657.8-.062.8.364 0 .662.27.662.6s-.356.6-.8.6-.8-.267-.8-.6a.6.6 0 0 0-.6-.6c-.375 0-.6-.379-.6-1.013 0-1.261-1.044-1.714-1.923-.835-.545.544-.575.8-.169 1.449.67 1.074.664 7.449-.008 7.879a1.22 1.22 0 0 0-.5.92c0 .432-.532.634-1.9.722-1.678.108-1.9.229-1.9 1.038 0 1.388-1.218 2.24-3.201 2.24h-1.738l.875.932c.849.904.854.953.139 1.6-.998.903-2.593.842-3.475-.132-1.401-1.548-2.2-1.056-2.2 1.353 0 1.817-.125 2.186-.8 2.363-1.263.33-1.021 7.884.252 7.884.729 0 .695.58-.072 1.217-.524.435-.656.38-.847-.351-.395-1.513-2.933-.077-2.933 1.66 0 .958-1.46.851-1.716-.126-.274-1.049-1.484-1.049-1.484 0 0 .533.267.8.8.8.568 0 .8.267.8.92 0 .506.196 1.116.435 1.355.313.313.313.51 0 .703-.239.148-.435.88-.435 1.626v1.356l-2.3.12-2.3.12-.121 1.448c-.099 1.179.031 1.487.7 1.662 1.547.405.979 1.49-.779 1.49-1.333 0-1.6-.133-1.6-.8 0-.465-.267-.8-.637-.8-.351 0-.732.36-.847.8-.26.995-.916 1.053-.916.082 0-1.08-2.439-1.144-3.393-.09-.402.444-.973.808-1.269.808-.387 0-.538.63-.538 2.237 0 1.865-.127 2.271-.763 2.437-.42.11-.853.543-.963.963s-.486.763-.837.763-.637.274-.637.61-.412.767-.916.958-1.157.637-1.449.99c-.341.41-1.165.642-2.284.642-1.59 0-1.751.09-1.751.976 0 .537-.18 1.088-.4 1.224s-.4.921-.4 1.744c0 3.197-3.04 5.442-3.74 2.763-.185-.708-.336-.791-.727-.4-.383.383-.386.6-.013.973.655.655.607 1.92-.073 1.92-.305 0-.648.36-.763.8-.186.711-.546.8-3.222.8h-3.014l-.124 1.5-.124 1.5-3.1.117c-3.104.117-4.419 1.013-2.3 1.567.44.115.8.475.8.8s-.36.685-.8.8c-.601.157-.8.546-.8 1.563 0 1.529-1.12 1.946-1.484.553-.298-1.14-2.734-1.14-3.032 0-.115.44-.496.8-.847.8-.37 0-.637.335-.637.8 0 .703.267.8 2.2.8 2.307 0 3.301 1.219 1.4 1.716-.613.16-.8.546-.8 1.647V150h-2.429c-2.621 0-3.409-.441-3.635-2.031-.174-1.228-1.536-1.581-1.536-.398 0 .562-.257.829-.8.829-.533 0-.8-.267-.8-.8 0-.465-.267-.8-.637-.8-.351 0-.732.36-.847.8-.169.644-.546.8-1.939.8-1.808 0-2.58-.557-1.822-1.315.575-.575.588-2.02.014-1.666-.557.344-.207-2.05.408-2.791.242-.292.481-1.362.532-2.378s.256-1.848.458-1.849c.72-.002-.089-.44-1.18-.638-1.489-.27-2.403.092-1.875.742.221.272.487 1.256.591 2.186l.19 1.69-1.354-.173c-1.498-.192-1.489-.246-.705 3.954.2 1.074.157 1.48-.137 1.298-.236-.146-.52-.039-.632.238-.16.392-.287.383-.585-.041-.551-.786-.843-.056-.62 1.551.481 3.47.368 4.906-.397 5.021-1.249.188-1.439 1.112-.837 4.072.301 1.477-.626 3.299-1.677 3.299-.516 0-.588.314-.39 1.7l.49 4c.255 2.373.27 2.348-1.449 2.461-.611.041-.678 1.52-.358 7.904.072 1.423-.079 2.497-.405 2.89-.438.528-.465 28.757-.049 50.967.012.626.177.826.515.623.285-.171.241.023-.103.455-.33.414-.394.63-.142.479s.569.015.705.368c.176.459.073.576-.358.41-.821-.315-.76-.033.182.845.582.543.807 1.328.862 3.016.044 1.338.256 2.285.513 2.288.3.004.306.099.019.3-.718.503-.609 2.094.144 2.095.713 0 1.028 1.618.992 5.099-.009.935.151 1.7.356 1.7s.271.168.144.372-.019.503.238.662c.293.181.361.116.183-.172-.157-.254-.095-.462.138-.462s.427.675.43 1.5c.005 1.273.759 3.455.794 2.3.05-1.644.711 1.231.755 3.288.047 2.153.791 5.183.833 3.388.007-.288.215-.398.463-.244.308.19.242.396-.208.648-.363.203-.554.541-.424.751s.404.278.609.152.372.134.372.579.36 1.003.8 1.238.8.692.8 1.014.193.586.429.586.158.27-.172.6c-.766.766-1.096.766-.802 0 .127-.33.047-.6-.177-.6-.525 0-.369 1.069.246 1.684.262.262.476.896.476 1.41 0 1.254 1.128 2.906 1.984 2.906 1.017 0 2.272 1.504 1.718 2.058-.242.242-.351.669-.243.95s-.005.635-.251.787c-.321.199-.301.456.073.917.389.481.394.566.019.341-.275-.165-.5-.11-.5.123s.371.424.824.424.712-.18.576-.4.014-.4.334-.4.683.268.809.595c.132.344.023.555-.257.5-.312-.061-.486.444-.486 1.409 0 1.005.159 1.444.48 1.321.286-.11.39.048.258.393-.122.318-.383.478-.58.356s-.358-.041-.358.179c0 .79.89.928 1.538.238.364-.387.437-.578.162-.424-.618.346-.634.031-.053-1.054.376-.704.345-.796-.2-.586-.356.136-.647.061-.647-.168s.494-.358 1.098-.288c.877.103 1.096-.032 1.089-.671-.006-.44.31-1.035.702-1.323s.711-.962.711-1.5c0-.627.228-.977.637-.977.351 0 .732-.36.847-.8.167-.639.546-.8 1.883-.8.92 0 1.889-.216 2.153-.48.704-.704.615-2.72-.12-2.72-.333 0-.6-.356-.6-.8 0-1.162 2.612-1.162 2.916 0 .115.44.475.8.8.8s.685.36.8.8c.168.641.012.8-.783.8-2.303 0-.864 1.393 1.571 1.52l2.296.12v-2.558c0-2.05.159-2.702.8-3.282.776-.703.8-.699.8.138 0 .595.247.862.8.862.533 0 .8-.267.8-.8 0-.676.267-.8 1.72-.8 1.596 0 2.68-.517 2.68-1.28 0-.176-.27-.32-.6-.32s-.6-.356-.6-.8c0-1.054 1.138-1.037 1.53.023.303.82.307.82 1.022.03 1.131-1.25.695-2.232-1.055-2.377-1.666-.138-2.305-1.676-.697-1.676.648 0 .8-.267.8-1.4v-1.4h3c3.303 0 4.07.907 2.2 2.6-.44.398-.8.966-.8 1.262s-.27.538-.6.538-.6.356-.6.8.249.8.553.8.648.36.763.8c.164.626.546.8 1.757.8h1.548l-.152 1.6-.153 1.6h2.442c2.175 0 2.442-.087 2.442-.8 0-.533-.267-.8-.8-.8-1.205 0-1.205-4.369 0-4.684.44-.115.8-.475.8-.8s-.36-.685-.8-.8c-1.211-.317-1.211-5.915 0-6.232.54-.141.8-.546.8-1.243 0-.601.335-1.244.8-1.534.44-.275.8-.829.8-1.233 0-.469.24-.686.667-.603 1.011.196 1.13 1.152.175 1.402-1.907.499-.986 1.727 1.296 1.727 1.65 0 2.308.188 2.883.823l.744.823.305-.823c.167-.453.559-.823.87-.823s.661-.36.776-.8.475-.8.8-.8.685-.36.8-.8.496-.8.847-.8.637-.215.637-.478c0-.632 2.018-2.722 2.628-2.722.263 0 .573-.36.688-.8.136-.519.546-.8 1.168-.8 1.434 0 3.893-2.608 2.743-2.909-1.056-.276-1.074-1.333-.027-1.607.613-.16.8-.546.8-1.647 0-1.431.008-1.437 1.751-1.437 2.344 0 3.11-.858 1.908-2.138-1.064-1.132-1.107-2.272-.096-2.536.42-.11.853-.543.963-.963.262-1.004 1.324-.98 1.59.037.3 1.148 2.9 1.148 3.2 0 .115-.44.496-.8.847-.8.37 0 .637.335.637.8 0 .667.267.8 1.6.8s1.6-.133 1.6-.8c0-.649.267-.8 1.41-.8 1.101 0 1.486-.2 1.758-.916.192-.504.637-1.157.99-1.449 1.453-1.206.803-2.035-1.595-2.035-1.901 0-2.269-.12-2.447-.8-.115-.44-.527-.8-.916-.8s-.801.36-.916.8-.496.8-.847.8-.637.27-.637.6-.356.6-.8.6c-.701 0-.8-.267-.8-2.153 0-1.817-.125-2.186-.8-2.363-.948-.248-1.083-1.484-.163-1.484.351 0 .732-.36.847-.8.156-.598.546-.8 1.539-.8.731 0 1.441-.18 1.577-.4s.597-.4 1.024-.4.776.18.776.4.349.4.776.4c.608 0 .803.325.9 1.5.117 1.419.205 1.507 1.624 1.624 1.175.097 1.5.292 1.5.9 0 .62.281.776 1.4.776.978 0 1.4.181 1.4.6 0 .92.522.725 1.922-.719 1.475-1.522 1.717-3.081.478-3.081-.541 0-.8.267-.8.824 0 1.758-2.975.878-3.124-.924l-.124-1.5h-2.176c-2.312 0-2.974-.84-1.576-2 .751-.623.774-1.2.047-1.2-.305 0-.648-.36-.763-.8s-.496-.8-.847-.8c-.37 0-.637-.335-.637-.8 0-1.183 2.779-1.166 3.089.019.342 1.308 1.491.78 1.639-.753.102-1.064-.037-1.369-.7-1.543-.708-.185-.828-.529-.828-2.37V206.4h1.712c1.253 0 1.866-.214 2.288-.8.317-.44.953-.8 1.413-.8s1.209-.347 1.664-.771 1.434-.829 2.175-.9L99.8 203l.112-4.849c.098-4.232.212-4.939.9-5.562.47-.425.788-1.227.788-1.989 0-.768.318-1.564.8-2 .44-.398.8-1.146.8-1.662 0-.671.227-.938.8-.938.555 0 .8.267.8.87v.869l.9-.834c.495-.459 1.342-.896 1.881-.97 1.247-.172 3.12-3.602 3.296-6.037.106-1.467.259-1.717 1.123-1.836 1.387-.192 2-.789 2-1.948 0-.652.272-1.06.8-1.198.594-.155.8-.546.8-1.516s.206-1.361.8-1.516c.44-.115.8-.496.8-.847 0-.506.455-.637 2.21-.637 1.935 0 2.253-.114 2.558-.916.192-.504.637-1.157.99-1.449.714-.592.893-3.433.242-3.835-1.201-.742-.378-1.8 1.4-1.8 1.794 0 1.8-.005 1.8-1.413 0-1.061.205-1.489.823-1.717l.823-.305-.823-.744c-1.082-.98-1.095-3.049-.023-3.821.47-.339.8-1.035.8-1.688 0-.845.192-1.112.8-1.112.533 0 .8-.267.8-.8 0-.728.267-.8 2.976-.8 2.954 0 3.955-.429 3.069-1.315-.743-.743-.529-1.885.355-1.885.622 0 .8-.267.8-1.2 0-.66.18-1.2.4-1.2s.4-.467.4-1.037c0-.705.259-1.106.808-1.249.878-.23.386-1.314-.595-1.314-2.731 0-1.663-4.493 1.123-4.725 1.145-.096 1.588-.349 1.859-1.061.196-.515.547-1.054.78-1.199.625-.386.517-1.015-.175-1.015-.333 0-.6-.356-.6-.8 0-1.091 1.138-1.019 1.588.1.356.888.362.886.387-.125.014-.589.527-1.506 1.204-2.155.648-.621 1.233-1.592 1.3-2.159.084-.719.422-1.099 1.121-1.261.74-.171 1.035-.537 1.135-1.403.074-.645.485-1.664.913-2.265.48-.674.871-2.084 1.02-3.677.132-1.421.376-2.803.542-3.071.516-.835 1.125-.041 1.012 1.318l-.165 2.402c-.031.607-.417 1.412-.857 1.789-.639.547-.8 1.18-.8 3.146 0 1.353-.27 3.226-.6 4.161s-.582 2.083-.559 2.55c.057 1.185.796-1.543 2.911-10.75a153.23 153.23 0 0 1 1.144-4.6c.327-1.21.994-4 1.485-6.2s1.237-5.17 1.661-6.6.767-3.085.764-3.678.399-1.53.894-2.083l.9-1.006 10.2-.199 19.6-.292c8.999-.089 8.808-.103-4.486-.318-12.462-.201-13.957-.295-14.58-.918-.658-.659-.628-.707.595-.952.708-.141 1.385-.414 1.503-.606s1.105-.348 2.192-.348c1.841 0 1.976-.068 1.976-1 0-.777.205-1 .922-1 .535 0 1.498-.602 2.3-1.439.758-.791 1.783-1.597 2.278-1.79s.9-.586.9-.873.36-.781.8-1.098c.47-.339.8-1.035.8-1.688 0-.845.192-1.112.8-1.112.533 0 .8-.267.8-.8s.267-.8.8-.8.8-.267.8-.8c0-.652.267-.8 1.437-.8 1.101 0 1.487-.187 1.647-.8.157-.601.546-.8 1.563-.8 1.086 0 1.353-.158 1.353-.8 0-.444-.267-.8-.6-.8s-.6-.356-.6-.8c0-.648.267-.8 1.4-.8h1.4v-2.018c0-2.554 1.212-3.982 3.382-3.982 1.151 0 1.418-.15 1.418-.8 0-.44-.18-.8-.4-.8s-.4-.36-.4-.8c0-.693.267-.8 2-.8s2-.107 2-.8c0-.729.267-.8 3-.8h3v-1.738c0-2.209.872-3.062 3.131-3.062 1.217 0 1.669-.163 1.669-.6a.59.59 0 0 0-.576-.6c-.317 0-.705-.208-.863-.462-.203-.329.063-.393.918-.222 1.394.279 2.121-.268 2.121-1.596 0-.575.239-.92.637-.92.351 0 .732-.36.847-.8s.475-.8.8-.8.685-.36.8-.8c.314-1.199 3.316-1.173 3.316.029 0 .56.217.788.667.7 1.011-.196 1.13-1.152.175-1.402-.463-.121-.842-.486-.842-.811s-.36-.685-.8-.8c-.686-.179-.8-.546-.8-2.563V45.2h2.4c2.46 0 3.519.982 1.6 1.484-1.459.382-.992 1.716.6 1.716 1.367 0 1.4-.038 1.4-1.6 0-1.156-.167-1.6-.6-1.6-.333 0-.6-.356-.6-.8 0-.648.267-.8 1.4-.8 1.324 0 1.4-.073 1.4-1.353 0-1.017.199-1.406.8-1.563.44-.115.8-.496.8-.847 0-.462.387-.637 1.41-.637 1.101 0 1.486-.2 1.758-.916.192-.504.637-1.157.99-1.449s.642-.961.642-1.484c0-.885.152-.951 2.171-.951 2.012 0 2.214-.088 2.769-1.2.679-1.362-.048-3.6-1.169-3.6-.314 0-.571-.36-.571-.8 0-.533.267-.8.8-.8.701 0 .8-.267.8-2.153 0-1.817.125-2.186.8-2.363.44-.115.8-.423.8-.684s-.36-.569-.8-.684-.8-.546-.8-.963c0-1.127 2.788-1.085 3.084.047.559 2.136 1.316.755 1.316-2.4v-3.2h-3-3v-2.4c0-2.133.089-2.4.8-2.4.533 0 .8-.267.8-.8 0-.649.267-.8 1.413-.8 2.166 0 2.741-1.743.636-1.926-.957-.083-1.88-.542-2.719-1.35-1.138-1.095-1.395-1.18-2.467-.806-1.289.45-4.49-.214-4.531-.939-.012-.209 1.176-.575 2.64-.815s2.87-.646 3.124-.9c.598-.598.018-.602-1.674-.012-1.824.636-4.422-.14-4.422-1.321 0-.871-2.123-.905-7.415-.117-1.016.152-2.275.011-3.4-.381-2.552-.888-33.331-.851-35.785.044m53.995 1.629c-.222.162-.402.834-.4 1.494L236.6 5l2.88-.2c1.668-.116 3.099-.429 3.4-.745.435-.456.356-.497-.48-.254-.55.16-1.09.292-1.2.292-1.207.008-1.686-.245-2.073-1.093-.448-.983-1.335-1.272-2.132-.694m8.205 2.422c0 1.559 3.417 2.047 4.716.673.156-.165-.134-.172-.645-.015-1.366.421-2.924-.073-2.786-.883.065-.382-.188-.736-.585-.818-.542-.111-.7.125-.7 1.043m6.627 1.372c.336 1.078.896 1.494 1.973 1.469.732-.018.724-.05-.1-.381-.519-.209-.9-.706-.9-1.175s-.263-.813-.627-.813c-.467 0-.555.23-.346.9m5.232 1.018c.247.155.516.642.598 1.082.177.947 1.703 1.241 3.158.609.962-.417.959-.422-.149-.202-1.592.316-2.779-.131-2.561-.965.123-.469-.082-.7-.659-.744-.463-.035-.636.063-.387.22M262.4 8.99c0 1.164.983 1.808 2.2 1.441l1.2-.362-1.347-.035c-1.101-.028-1.311-.168-1.155-.767.117-.447-.021-.734-.353-.734-.3 0-.545.206-.545.457m4.8 1.377c0 .836.523 1.633 1.071 1.633.495 0 .488-.098-.046-.632-.348-.348-.53-.798-.405-1s.037-.368-.196-.368-.424.165-.424.367m-26.4 1.184c0 .488.255.849.6.849.33 0 .6-.158.6-.351s-.27-.575-.6-.849c-.501-.416-.6-.358-.6.351m-98.8 2.8c0 .193-.27.575-.6.849-.501.416-.6.358-.6-.351 0-.488.255-.849.6-.849.33 0 .6.158.6.351m100.4.449c0 .444.267.8.6.8s.6-.356.6-.8-.267-.8-.6-.8-.6.356-.6.8m-8 1.6c0 .44-.18.8-.4.8s-.4-.36-.4-.8.18-.8.4-.8.4.36.4.8m48.583.699c.119.312.217.642.217.734 0 .562.64.033.685-.566.03-.404-.209-.734-.532-.734-.342 0-.497.237-.37.566m3.306 1.318c.136.523.329.678.498.403.154-.249.617-.326 1.045-.175.525.186.641.142.368-.141-.903-.935-2.148-.991-1.911-.087M142 20.049c0 .193-.27.351-.6.351-.345 0-.6-.361-.6-.849 0-.709.099-.767.6-.351.33.274.6.656.6.849m-26.42-.011c-.367.684-.691.793-1.768.591-.988-.186-1.379-.091-1.559.377-.366.955.882 1.205 2.182.437.63-.372 1.285-.691 1.455-.708 1.236-.124 2.242-.807 1.696-1.152-.925-.585-1.522-.45-2.006.455m177.62 1.495c0 .533.25.867.649.867.555 0 .572-.101.113-.7l-.649-.867c-.062-.091-.113.224-.113.7m-54 2.667c0 .373.378.6 1 .6s1-.227 1-.6-.378-.6-1-.6-1 .227-1 .6m.275 2.458c-.55.55-.264 1.399.425 1.266.385-.074.7-.387.7-.696 0-.632-.706-.989-1.125-.57M232.8 33.6c0 .533-.267.8-.8.8s-.8-.267-.8-.8.267-.8.8-.8.8.267.8.8m-4.8 7.8c0 .333.356.6.8.6s.8-.267.8-.6-.356-.6-.8-.6-.8.267-.8.6M43.055 73c-.257.67.357.829.749.193.138-.223.447-.285.685-.138.26.16.32.082.149-.193-.403-.653-1.31-.574-1.583.138M38.9 78.687c-.558.2-.675 1.157-.18 1.464.176.108.532-.143.792-.558.498-.798.223-1.205-.612-.906M187.6 82c0 .602.209.818.7.724.385-.074.7-.4.7-.724s-.315-.65-.7-.724c-.491-.094-.7.122-.7.724M32.4 89.849c0 .531.109.559.6.151.33-.274.6-.566.6-.649s-.27-.151-.6-.151-.6.292-.6.649m126 5.324c0 .467-1.569.992-1.919.642-.299-.3.685-1 1.419-1.009.275-.003.5.162.5.367M72.8 96c0 .747.107.853.48.48s.373-.587 0-.96-.48-.267-.48.48m82.794 1.1c-.018.877-.782 1.459-.788.6-.003-.495.174-.9.394-.9s.397.135.394.3M67.2 100.8c0 .44.18.8.4.8s.4-.36.4-.8-.18-.8-.4-.8-.4.36-.4.8m86.681 4.642c-.252 2.433-.404 2.776-1.054 2.374-.55-.339-.545-1.759.012-3.356.722-2.07 1.3-1.524 1.042.982m-132.914 2.612c-.118.19-.013.346.233.346s.348.161.226.358c-.266.43.893.939 1.41.62.2-.124.364-.464.364-.755 0-.606-1.909-1.093-2.233-.569m131.429 2.446c-.007 2.087-.469 4.302-.847 4.068-.397-.245-.459-3.116-.097-4.468.359-1.339.949-1.088.944.4M15.492 122.369c-.255.975.382 1.517 1.026.873.33-.33.283-.612-.18-1.076-.571-.571-.648-.552-.846.203m-1.992 2.307c-.385.1-.7.316-.7.478 0 .457 2.396 2.646 2.431 2.221.016-.206.096-.729.177-1.161s-.045-1.018-.28-1.3c-.442-.534-.477-.539-1.628-.238M11.4 128c-.194.314-.09.696.261.961 1.138.857.948 3.972-.228 3.747-1.265-.241-1.493.357-.719 1.887.332.656.623 1.542.645 1.966.079 1.495.993 1.104 1.458-.623.254-.943.714-2.075 1.022-2.515 1.206-1.722.56-5.279-.822-4.523-.1.055-.433-.242-.739-.661-.431-.59-.628-.644-.878-.239m135.5 7.333c-.495 1.577-.902 3.407-.903 4.067s-.242 1.661-.536 2.224-.639 2.274-.766 3.8c-.203 2.439-.183 2.557.159.976.613-2.834 1.919-8.363 2.624-11.106.891-3.466.515-3.44-.578.039M42 134.8c0 .22-.27.4-.6.4s-.6-.18-.6-.4.27-.4.6-.4.6.18.6.4m-10.8 7.738c0 1.23-.234 1.95-.8 2.462-.44.398-.8.979-.8 1.291 0 .324-.3.511-.7.435-1.1-.208-1.207-2.721-.128-3.003.631-.165.828-.538.828-1.57 0-1.086.158-1.353.8-1.353.677 0 .8.267.8 1.738m112.453 7.162c-.226.715-.502 2.2-.614 3.3-.2 1.967-.195 1.96.312-.4.284-1.32.648-2.805.81-3.3s.205-.9.097-.9-.38.585-.605 1.3m-2.253 9.9c-.154.91-.189 1.744-.079 1.854s.325-.544.479-1.454.189-1.744.079-1.854-.325.544-.479 1.454m-.708 2.642c-.161.16-.287.666-.28 1.125.011.769.044.778.428.118.448-.769.333-1.725-.148-1.243M166.936 164c-5.839 1.451-12.211 3.988-10.036 3.996 1.403.005 1.382.213-.15 1.53-1.695 1.457-3.082 2.043-4.75 2.01-.77-.016-1.1-.108-.734-.205.589-.156 1.333-1.265 1.043-1.555-.773-.774-3.315 2.277-3.368 4.041-.032 1.09.019 1.533.112.983.489-2.865.654-3.093 1.013-1.4.782 3.688.829 4.699.298 6.308l-.547 1.66-.512-1.584c-.499-1.549-.506-1.526-.29 1.016.249 2.941 1.298 7.579 1.351 5.976.09-2.722 4.608-4.977 6.272-3.13.758.84.763.827.962-2.3l.2-3.146 1.471-.122c1.349-.113 1.482-.03 1.6.996.18 1.56 1.428 1.755 1.6.25.118-1.024.288-1.135 1.929-1.247 3.057-.208 6-3.445 6-6.601 0-1.992-.119-2.382-.777-2.554-.475-.124-.825-.615-.9-1.263-.102-.877-.398-1.119-1.723-1.406-2.813-.611-2.845-.726-.4-1.441 5.122-1.499 5.354-2.06.336-.812m-27.3 2.8c-.874 4.254-.881 6.074-.01 2.412.444-1.864.748-3.754.676-4.2s-.372.358-.666 1.788m24.288 5.9c-.074.385-.4.7-.724.7s-.65-.315-.724-.7c-.094-.491.122-.7.724-.7s.818.209.724.7m-25.037 9.7c-.004.55.137 1.45.313 2 .431 1.344.431-.108 0-1.8-.274-1.078-.306-1.098-.313-.2m-59.363 41.9c-.074.385-.4.7-.724.7s-.65-.315-.724-.7c-.094-.491.122-.7.724-.7s.818.209.724.7m-4.396 3.634c.1 1.046-.04 1.37-.663 1.533-.435.114-.881.55-.991.97-.267 1.022-1.474.991-1.474-.037 0-.533.267-.8.8-.8.669 0 .8-.267.8-1.629 0-2.121 1.324-2.154 1.528-.037m-34.072 31.544c-.478.478-.258 1.322.344 1.322a.59.59 0 0 0 .6-.576c0-.669-.571-1.12-.944-.746M11.6 271.928c.33.15.66.697.733 1.216.097.693-.009.862-.4.636-.293-.17-.393-.154-.221.034.437.481 1.543.598 1.255.133-.13-.21.005-.679.299-1.041s.328-.536.076-.385-.561.005-.688-.323-.55-.585-.941-.57c-.578.023-.6.08-.113.3m36.876.772c.074.385.4.7.724.7s.65-.315.724-.7c.094-.491-.122-.7-.724-.7s-.818.209-.724.7m-3.276 1.5c0 .333.356.6.8.6s.8-.267.8-.6-.356-.6-.8-.6-.8.267-.8.6m-28.4 9.424c0 .233-.18.312-.4.176s-.4-.057-.4.176.191.424.424.424.294.225.135.5-.134.36.054.19c.38-.346.694-1.89.384-1.89-.108 0-.197.191-.197.424m1.181 1.196c-.469.297-.475.369-.032.374.393.004.431.148.135.506-.614.743-.12 2.7.683 2.7.37 0 .848.135 1.061.3s.05-.015-.364-.4-.615-.7-.446-.7-.02-.36-.418-.8-.535-.8-.305-.8c.52 0 .981-1.106.568-1.361-.165-.102-.563-.021-.882.181m1.407 5.2c-.381.615.14 1.012.654.498.287-.287.294-.511.02-.679-.223-.139-.527-.057-.674.181m1.503 2.994c-.062.747.068.9.594.698.428-.164.498-.318.192-.42-.265-.088-.388-.313-.273-.499a.39.39 0 0 0-.113-.537c-.177-.109-.357.232-.4.758m3.482 6.936a2.26 2.26 0 0 0 1.237.969c.732.191.771.135.313-.45-1.079-1.379-2.213-1.759-1.55-.519m4.427 7.364c0 .269.54.998 1.2 1.621.885.836 1.2.967 1.2.499 0-.349-.168-.634-.373-.634s-.482-.343-.615-.763c-.278-.876-1.412-1.457-1.412-.723m2.828 3.937c-.015.358.287.892.672 1.187s.567.378.403.186-.096-.592.149-.887c.328-.395.327-.537-.003-.537-.247 0-.462.225-.477.5s-.183.14-.372-.3c-.264-.616-.35-.65-.372-.149m9.641 13.811c.077.401.453.789.836.863.968.186.871-.603-.141-1.144-.715-.383-.815-.343-.695.281" fill="#ba1018"/><path d="M177 .379l-2 .253 2.295.33c2.409.345 4.912.074 5.315-.577.258-.419-2.326-.422-5.61-.006m41.17.092c1.431.831 7.481.715 6.167-.119-.295-.187-1.977-.337-3.737-.334-2.551.005-3.044.097-2.43.453M167.6 1.2c.387.723.301.803-.886.828-1.07.023-1.165.088-.514.348 1.306.523 4.646-.133 4.498-.883-.153-.769-.786-1.08-2.212-1.087-1.191-.005-1.274.069-.886.794m62 .027c0 .913 2.377 1.729 3.999 1.373 1.064-.233 1.129-.329.595-.863-.331-.331-.511-.748-.4-.928S233.007.49 231.798.5c-1.833.014-2.198.135-2.198.727m-70.276 1.541c-.113.433-.592.863-1.065.955s-.139.19.741.216 1.87-.126 2.2-.339.443-.391.251-.394-.156-.238.08-.522c.332-.401.156-.538-.786-.609-.917-.07-1.266.1-1.421.693m79.476-.444c0 .576.984 1.619 1.6 1.696 1.454.182 1.973-.026 1.718-.689-.192-.502-.094-.607.392-.421.457.176.583.078.427-.33-.239-.623-4.137-.864-4.137-.256M152.684 4.4c.172.656.003.808-.937.846-.736.03-.885.115-.415.236 1.198.309 2.558-.217 2.783-1.078.166-.634.015-.804-.715-.804s-.881.17-.716.8m93.843-.145c-.007.899.565 1.331 1.773 1.339.566.004.9-.235.9-.643 0-.536.106-.561.61-.143.716.594 1.341.183.698-.46-.861-.861-3.974-.933-3.981-.093M145.9 5.465c.751.303.601 1.33-.2 1.367-.446.02-.512.106-.183.239.987.395 2.483-.254 2.483-1.079 0-.633-.26-.786-1.3-.76-.715.017-1.075.122-.8.233m106.972.635c.139.976 1.337 1.358 2.302.733.821-.532-.157-1.633-1.451-1.633-.786 0-.953.177-.851.9M141.7 7.065c-.725.293-.614 1.335.143 1.335.394 0 .557-.222.422-.574-.121-.316-.005-.662.257-.769s.298-.194.078-.194-.625.091-.9.202m116.44.348c-.285.743.447 1.371 1.607 1.381.55.004.691-.204.537-.794-.255-.975-.136-.995.731-.128.629.629.662.624.526-.081-.2-1.041-3.027-1.355-3.401-.378M135.771 9.279c0 .416.292.721.69.721.433 0 .668-.285.631-.769-.073-.975-1.321-.93-1.321.048M263.7 8.665c-1.256.507-.458 1.335 1.287 1.335 1.425 0 1.741-.122 1.558-.6-.127-.33-.492-.6-.811-.6-.338 0-.461.194-.296.462.178.288.11.353-.183.172-.257-.159-.364-.457-.238-.662.242-.391-.469-.449-1.317-.107m-132.1 1.906c0 .314-.315.653-.7.753-.431.113-.277.201.4.23.849.035 1.1-.137 1.1-.754 0-.44-.18-.8-.4-.8s-.4.257-.4.571m136.285-.323c-.608.608.313 1.351 1.658 1.339 1.291-.011 1.378-.073.763-.539-.381-.29-.615-.606-.519-.702s-.241-.209-.749-.251-1.027.027-1.153.153m-140.732 1.519c-.026.238-.019.591.017.784s-.304.255-.753.138-.817-.04-.817.174c0 .826 2.521.164 2.65-.696.078-.523-.094-.834-.463-.834-.323 0-.608.195-.634.434m145.247.446c0 .794.202.987 1.029.987 1.289 0 1.199-1.152-.129-1.642-.78-.288-.9-.201-.9.655m-149.891 1.135c-.128.206-.025.247.229.09.27-.167.462-.038.462.311 0 .327-.405.673-.9.769-.676.13-.588.187.353.228 1.01.043 1.288-.124 1.429-.86.18-.944-1.06-1.368-1.573-.538m153.852.357c.201.544.666.895 1.185.895 1.259 0 1.089-.727-.303-1.295-1.168-.477-1.201-.462-.882.4M119.492 15.23c.114.437-.093.775-.555.907-.502.144-.431.187.225.137 1.033-.079 1.682-1.741.68-1.741-.309 0-.456.292-.35.697m160.58.07c.154 1.085 1.601 1.248 1.755.198.056-.386-.061-.6-.262-.476s-.365.035-.365-.198-.283-.424-.628-.424c-.422 0-.586.295-.5.9m-165.005.967c-.507.507-.266 1.03.27.585.698-.579 1.19-.087.611.611-.329.397-.325.537.016.537.718 0 1.018-1.24.394-1.634-.676-.428-.942-.449-1.291-.099m168.841.443c-.314 1.2.339 1.524.912.453.265-.495.288-.753.054-.609-.223.138-.479.03-.57-.241s-.268-.092-.396.397m-171.967 1.326c-.385.238-.382.433.014.91.627.755 1.608.429 1.538-.512-.056-.736-.726-.908-1.552-.398M286.8 18.8c0 .22.405.397.9.394.728-.005.785-.08.3-.394-.776-.501-1.2-.501-1.2 0m-178.267 1.4c0 .375.379.6 1.01.6.974 0 .982-.021.233-.587-.993-.752-1.243-.755-1.243-.013m-2.199.869c-1.145.304-1.239 1.331-.121 1.331.72 0 .987-.216.987-.8 0-.44-.045-.779-.1-.754a10.3 10.3 0 0 1-.766.223m-4.111 1.641c-.394.394-.24.798.398 1.043.421.161.525.079.323-.258-.197-.328-.069-.31.379.054.579.47.677.462.677-.053 0-.604-1.358-1.205-1.777-.786m194.323.287c-.318.828.039 1.165.783.74.505-.29.509-.41.025-.857-.466-.43-.606-.41-.808.117m-196.128 1.837c.246.459.544.737.664.618.33-.33-.199-1.452-.684-1.452-.295 0-.289.256.02.834m199.282-.546c-.79.282-.582 1.312.265 1.312.445 0 .728-.246.678-.588-.113-.771-.335-.941-.943-.724M95.5 27.429c-1.273.69-1.388.971-.396.971.387 0 .928-.36 1.203-.8.587-.94.604-.937-.807-.171m-3.1 1.378c-.399.253-.432.383-.1.387.753.009.6.721-.2.93-.656.172-.655.186.013.23.719.046 1.279-.789 1.025-1.528-.089-.258-.352-.265-.738-.019m214.406.293c.013.628.621 1.179 1.294 1.173.787-.007.945-.874.238-1.311-.309-.191-.356-.1-.141.276.259.455.217.466-.218.062-.602-.558-1.182-.657-1.173-.2m9.872 5.957c.262.107.378.453.257.769-.258.673.49.781.893.129.279-.452-.502-1.164-1.228-1.117-.22.014-.185.113.078.219m6.389 4.81c-.117.116-.119.452-.006.747.208.543 1.339.363 1.339-.214 0-.397-1.05-.817-1.333-.533M69.232 46.271c-.018.479-.347.953-.732 1.053-.656.172-.655.186.013.23.775.05 1.285-.823.956-1.641-.113-.282-.22-.121-.237.358m-2.509 1.655c-.288.4-.813.835-1.167.966s-.743.616-.863 1.075c-.25.955.387.726 1.23-.443.287-.398.744-.724 1.014-.724s.492-.36.492-.8c0-.981-.05-.986-.706-.074m-20.09 20.731c-.381.993.039 1.129.549.177.245-.459.279-.834.075-.834s-.485.296-.624.657m111.386 27.814c-1.027.38-2.02 1.918-2.013 3.118.003.556-.341 2.181-.764 3.611l-1.66 6.6-1.613 6.8-1.603 6.6-1.411 5.8c-.479 1.801-1.458 5.948-3.163 13.4l-1.229 5.2c-.957 3.918-2.136 9.157-2.562 11.384-.208 1.091-.639 2.891-.956 4-7.404 25.868 5.971 54.921 30.12 65.426l5.049 2.182c.668.282 2.828.905 4.8 1.384 5.052 1.227 5.545 1.471 6.347 3.141 3.63 7.56 5.082 19.154 3.644 29.083-.319 2.2-.585 4.776-.592 5.725-.015 1.99-1.303 8.372-2.397 11.875-.413 1.32-.858 3.046-.989 3.836-.375 2.254-4.226 4.421-28.027 15.774-2.2 1.049-4.311 2.286-4.691 2.749-.905 1.101-1.006 6.297-.137 7.018.721.598 91.663.618 93.235.02.933-.354.992-.553.984-3.287-.012-3.847-.088-3.921-7.991-7.797L216.792 288.8c-1.716 0-5.094-12.894-5.973-22.8-.888-10.012-.908-11.382-.248-17.2 1.131-9.977 3.707-16 6.842-16 .64 0 6.241-1.628 8.902-2.588 7.485-2.699 15.725-8.014 20.607-13.292 3.554-3.841 4.009-4.399 5.725-7.009 6.291-9.574 9.86-21.553 9.924-33.311.029-5.187-.112-6.139-2.157-14.6l-1.608-7-1.458-6.2c-.315-1.21-.73-3.01-.921-4-.418-2.17-1.461-6.59-2.265-9.6-.323-1.21-.744-3.01-.935-4-.501-2.598-1.619-7.118-2.267-9.171-.308-.974-.56-2.17-.56-2.658s-.332-2.031-.737-3.429-1.14-4.342-1.63-6.542-1.239-5.301-1.663-6.892-.773-3.3-.776-3.8c-.008-1.152-.353-1.661-1.553-2.294-1.04-.548-84.535-.493-86.022.057m85.938 1.327c.307.3.785 1.683 1.062 3.074.586 2.941 1.583 7.197 2.419 10.328.323 1.21.744 3.01.935 4 .382 1.979 1.364 6.182 2.244 9.6 1.311 5.093 1.891 7.503 2.215 9.2a68.71 68.71 0 0 0 .93 4c.804 3.01 1.847 7.43 2.265 9.6.191.99.606 2.79.921 4s.977 4 1.468 6.2l1.482 6.2c2.041 7.646 2.129 17.177.234 25.2l-.927 4c-3.22 14.408-16.827 29.989-30.605 35.047-5.163 1.896-7.491 2.638-9.926 3.164-4.205.909-4.806 1.515-6.926 6.989-3.59 9.27-3 32.684 1.114 44.2.235.66.675 2.082.976 3.161s.81 2.249 1.131 2.6c.709.778.707.778 17.878 9.197 7.722 3.786 13.959 7.081 14.1 7.448.472 1.229.273 4.879-.29 5.347-.397.329-12.767.423-46.1.349L155 310.6v-3-3l16-8 16-8 .716-2.2c5.78-17.747 6.24-39.088 1.084-50.249-1.745-3.778-2.207-4.118-6.682-4.93-4.92-.892-14.83-5.167-18.518-7.989a39.07 39.07 0 0 0-2.422-1.709c-3.1-1.938-10.041-9.548-12.549-13.758-2.828-4.748-5.704-11.62-6.43-15.365-.15-.77-.513-2.133-.807-3.029-1.637-4.989-1.611-20.075.042-24.094.3-.728.665-2.258.812-3.4s.446-2.527.665-3.077.623-2.17.899-3.6c.486-2.512 1.242-5.803 2.39-10.4 1-4.005 1.875-7.776 2.228-9.6a53.93 53.93 0 0 1 .924-3.8c.317-1.1.964-3.71 1.438-5.8l1.613-6.8 1.638-7c.488-2.2 1.219-5.144 1.623-6.542s.736-2.979.736-3.513c0-1.322 1.074-3.83 1.913-4.466 1.035-.785 84.83-.277 85.644.519m-227.69 17.269c-.383.382-.329.933.09.933.197 0 .461-.27.588-.6.234-.61-.192-.819-.678-.333m-2.639 6.88c-.393.735-.214 1.253.434 1.253.181 0 .292-.45.246-1-.099-1.198-.162-1.221-.68-.253M9.3 134.5c.055.275-.138.451-.43.39s-.42.067-.287.283c.334.54 1.417.069 1.417-.616 0-.306-.18-.557-.4-.557s-.355.225-.3.5m-2.134 4c-.187.543-.167 2.7.024 2.7.557 0 1.21-1.015 1.21-1.88 0-.714-1.035-1.401-1.234-.82M5.6 145c-.274.33-.431.614-.349.631 1.381.283 1.549.233 1.549-.466 0-.917-.517-.988-1.2-.165m-1.61 5.226c-.586 1.541-.495 2.3.243 2.017.348-.134.708-.243.8-.243.379 0 .13-1.479-.333-1.979-.4-.431-.4-.482 0-.256.275.155.5.092.5-.141 0-.822-.825-.411-1.21.602m-1.49 6.867c-.275.096-.5.538-.5.983 0 .539.192.736.574.589.316-.121.662-.005.769.257s.205.118.219-.322c.034-1.052-.439-1.723-1.062-1.507m168.5 5.101c-8.688 1.362-21.649 6.8-22.935 9.622-1.539 3.379 1.835 23.75 4.367 26.364.202.209.368.643.368.965 0 3.414 13.77 19.655 16.665 19.655.15 0 .556.25.904.556 1.231 1.084 7.472 4.096 10.231 4.937 6.292 1.919 7.453 2.159 13.4 2.76 28.701 2.905 50.978-11.006 58.057-36.253 1.127-4.019 2.343-13.243 1.833-13.9-.519-.669-1.681-.634-2.263.067-2.874 3.464-13.675 7.033-21.281 7.033-7.427 0-13.088-1.589-20.546-5.766-2.794-1.565-6.003-4.066-9.8-7.637-7.898-7.43-17.489-10.209-29-8.403m15.8 1.774c5.409 1.8 9.389 4.215 13.6 8.253 4.07 3.903 4.958 4.558 10.874 8.024 11.288 6.613 28.183 6.324 38.235-.654 1.26-.874 2.516-1.59 2.791-1.59.74-.001.642 5.309-.15 8.215-.358 1.311-.782 3.104-.941 3.984-1.843 10.148-11.495 23.464-20.853 28.769-5.088 2.883-9.035 4.478-13.556 5.474l-4.6 1.077c-4.136 1.005-18.716.973-23.2-.05-8.821-2.013-10.164-2.482-15.6-5.446-9.786-5.336-15.976-12.432-20.785-23.824-3.432-8.132-5.07-23.155-2.726-24.999 2.933-2.307 11.559-5.892 17.3-7.19l4.211-.966c2.293-.555 12.859.078 15.4.923M.845 165.516c-.218.407-.33 1.087-.251 1.511s.159 1.011.175 1.302c.065 1.108 1.231-.67 1.231-1.877 0-1.456-.612-1.951-1.155-.936M.075 176.2c-.005 1.822.071 2.143.316 1.334.177-.587.18-1.667.006-2.4C.129 174 .081 174.16.075 176.2" fill="#aa6362"/></svg>